<svg xmlns="http://www.w3.org/2000/svg" width="37.578" height="28.185" viewBox="0 0 37.578 28.185">
  <g id="departures" transform="translate(0 0)">
    <g id="Group_41082" data-name="Group 41082" transform="translate(0 1.566)">
      <g id="Group_41081" data-name="Group 41081">
        <path id="Path_38851" data-name="Path 38851" d="M30.532,85.336c-4.426,0-9.509,2.322-9.723,2.419a.784.784,0,0,0,.656,1.423c.05-.023,4.989-2.277,9.067-2.277,3.993,0,5.48.96,5.48,1.566,0,2.92-24.51,12.526-29.749,12.526a33.178,33.178,0,0,1-4.343-.2A16.5,16.5,0,0,1,4.273,99.34a.783.783,0,0,0,.293-1.13L1.791,94.047l.712-.712,5.757,2.879a.786.786,0,0,0,.7,0l4.7-2.349a.783.783,0,1,0-.7-1.4L8.612,94.638,2.7,91.681a.781.781,0,0,0-.9.147L.23,93.394a.783.783,0,0,0-.1.988l2.654,3.98C0,99.917,0,100.689,0,100.994c0,1.411,2.006,1.566,6.263,1.566,4.168,0,31.315-9.168,31.315-14.092C37.578,87.525,36.892,85.336,30.532,85.336Z" transform="translate(0 -85.336)" fill="#0d3548"/>
      </g>
    </g>
    <g id="Group_41084" data-name="Group 41084" transform="translate(3.131 0)">
      <g id="Group_41083" data-name="Group 41083">
        <path id="Path_38852" data-name="Path 38852" d="M63,69.381a.783.783,0,0,0-.553-.653l-15.658-4.7a.783.783,0,0,0-.778.2l-3.132,3.132a.783.783,0,0,0,.166,1.234l10.96,6.263a.783.783,0,0,0,.791-.008l7.829-4.7A.785.785,0,0,0,63,69.381Zm-8.616,3.888-9.672-5.527,2.078-2.076L60.3,69.719Z" transform="translate(-42.656 -63.997)" fill="#0d3548"/>
      </g>
    </g>
    <g id="Group_41086" data-name="Group 41086" transform="translate(29.751 2.349)">
      <g id="Group_41085" data-name="Group 41085">
        <path id="Path_38853" data-name="Path 38853" d="M410.83,96a7.734,7.734,0,0,0-5.245,1.788.783.783,0,0,0,1.091,1.124,6.2,6.2,0,0,1,4.154-1.347.783.783,0,0,0,0-1.566Z" transform="translate(-405.351 -96.002)" fill="#0d3548"/>
      </g>
    </g>
    <g id="Group_41088" data-name="Group 41088" transform="translate(19.572 10.959)">
      <g id="Group_41087" data-name="Group 41087">
        <path id="Path_38854" data-name="Path 38854" d="M278.39,223.3l-2.349-9.395a.783.783,0,1,0-1.519.379l2.2,8.786-2.01,1.005-6.65-8.126a.783.783,0,0,0-1.214.991l7.046,8.612a.782.782,0,0,0,.96.2l3.132-1.566A.783.783,0,0,0,278.39,223.3Z" transform="translate(-266.667 -213.312)" fill="#0d3548"/>
      </g>
    </g>
    <g id="Group_41090" data-name="Group 41090" transform="translate(0 26.619)">
      <g id="Group_41089" data-name="Group 41089">
        <path id="Path_38855" data-name="Path 38855" d="M18.006,426.669H.783a.783.783,0,0,0,0,1.566H18.006a.783.783,0,1,0,0-1.566Z" transform="translate(0 -426.669)" fill="#0d3548"/>
      </g>
    </g>
  </g>
</svg>
