<svg xmlns="http://www.w3.org/2000/svg" width="34.592" height="34.592" viewBox="0 0 34.592 34.592">
  <g id="Outline" transform="translate(-16 -16)">
    <path id="Path_59017" data-name="Path 59017" d="M26.378,47.133v1.153H25.224V47.133Zm-3.459,0v1.153h1.153V47.133Zm-6.848.7a3.458,3.458,0,0,1-.07-.7V36.755h1.153V47.133a2.309,2.309,0,0,0,2.306,2.306h8.648V45.4H21.189a.577.577,0,0,1-.577-.577V37.908h1.153V44.25h.2l3.123-5.695L23.75,37.086l0,0L19.791,32.73A2.886,2.886,0,0,0,17.153,35.6H16a4.041,4.041,0,0,1,3.459-3.994V21.3l-1.008-2.52a2.081,2.081,0,0,1,.448-2.186A2.017,2.017,0,0,1,20.333,16h9.784A2.027,2.027,0,0,1,32,18.78l-.791,1.979,1.439.288a1.527,1.527,0,0,1-.3,3.024q-.371,0-.742-.017l1.074,2.686a.577.577,0,0,1-.535.791h-1.73v2.883a2.291,2.291,0,0,1-.31,1.153h.07a5.189,5.189,0,0,1,4.391,2.424l1.588,2.523-.976.614L33.588,34.6a4.06,4.06,0,0,0-.978-1.064L26.737,44.25H30.3l-.128-.109A1.626,1.626,0,0,1,30.99,41.3V37.908h1.153v1.567l2.481,4.061,1.042.833,1.4-9.59A1.759,1.759,0,0,1,38.81,33.3h1.455a2.18,2.18,0,0,1,1.85-1.153h.721L42.873,32a2.174,2.174,0,0,1,2.021-1.588,1.44,1.44,0,0,1,1.466,1.73H46.8a1.488,1.488,0,0,1,1.192.553,1.413,1.413,0,0,1,.269.6h.577a1.768,1.768,0,0,1,1.339.609,1.711,1.711,0,0,1,.4,1.367l-.679,4.638a1.585,1.585,0,0,1,.666,1.624l-.726,3.632a1.734,1.734,0,0,1-1.7,1.39h-1.86a1.585,1.585,0,0,1-1.555-1.9l.726-3.632a1.734,1.734,0,0,1,1.7-1.39h1.622l.664-4.533a.551.551,0,0,0-.132-.446.615.615,0,0,0-.467-.21h-.712l-.328,1.295a.577.577,0,0,1-.559.435h-7.02a.577.577,0,0,1-.559-.718l.257-1.011h-1.1a.6.6,0,0,0-.6.5L36.185,48.783a.552.552,0,0,0,.128.441.613.613,0,0,0,.456.214H46.807a.6.6,0,0,0,.6-.5l.193-1.316,1.141.167-.193,1.316a1.759,1.759,0,0,1-1.741,1.483H19.459A3.465,3.465,0,0,1,16.07,47.829Zm33.27-6.88a.427.427,0,0,0-.334-.159h-1.86a.578.578,0,0,0-.565.464l-.726,3.631a.432.432,0,0,0,.424.517h1.86a.578.578,0,0,0,.565-.463l.726-3.632A.427.427,0,0,0,49.34,40.949Zm-8.385-5.924h5.83l.328-1.295a.377.377,0,0,0-.037-.326A.345.345,0,0,0,46.8,33.3h-1.17a.577.577,0,0,1-.559-.718L45.213,32a.378.378,0,0,0-.037-.326.346.346,0,0,0-.281-.108,1.018,1.018,0,0,0-.9.718l-.146.577a.577.577,0,0,1-.559.434h-1.17a1.018,1.018,0,0,0-.9.718Zm-10.6-13.26H26.5a15.411,15.411,0,0,0,5.842,1.153.374.374,0,0,0,.073-.74Zm-.331-1.159.463-1.158.227-.566h-.59a.865.865,0,0,0-.1,1.724Zm-9.6.006H28.3a2,2,0,0,1-.174-.577H21.765V18.883H28.3a2.02,2.02,0,0,1,1.823-1.153h.812a.874.874,0,0,0-.82-.577H20.333a.873.873,0,0,0-.811,1.2Zm.5,3.3a2.127,2.127,0,0,1,2.158-1.574l.192-.577H20.612v4.95l.84-.84a2.1,2.1,0,0,1-.531-1.96Zm-.309,7.651h7.495a1.154,1.154,0,0,0,1.153-1.153V29.26h-1.73V28.107h1.73V26.954a.577.577,0,0,1,.577-.577h1.455l-.973-2.432A16.6,16.6,0,0,1,28.6,23.64a1.153,1.153,0,1,1-1.738-.506,16.526,16.526,0,0,1-2.465-1.1L24.042,23.1a.577.577,0,0,1-.547.394h-.557a.924.924,0,0,0-.9.7.958.958,0,0,0,.484,1.052l.074.037a.577.577,0,0,1,.152.924l-2.137,2.137Zm7.495,1.153H27.37l-.4,1.2.154.921,1.163-2.121ZM24.042,34l-.855-1.283H21.339L23.8,35.43Zm1.631,3.484.555-1.011-.418-2.508a.578.578,0,0,1,.022-.277l.324-.971H24.572l.555.833a.577.577,0,0,1,.089.415l-.425,2.55Zm-.25,6.764L31.6,32.982a4.046,4.046,0,0,0-1.428-.263H29.6L23.278,44.25Zm8.94.656-2.22.888v3.645h2.984a1.706,1.706,0,0,1-.083-.823l.422-2.882Zm-3.443-1.641,1.413,1.211,1.08-.432-1.887-1.51a.483.483,0,0,0-.145-.079.475.475,0,0,0-.461.811ZM29.26,49.439h1.73V45.4H29.26Z" transform="translate(0 0)" fill="#0d3548"/>
  </g>
</svg>
