<svg xmlns="http://www.w3.org/2000/svg" width="42.147" height="41.367" viewBox="0 0 42.147 41.367">
  <g id="home" transform="translate(0.101 0.118)">
    <path id="Path_58950" data-name="Path 58950" d="M40.392,40a8.383,8.383,0,1,0,3.353,16.068.763.763,0,0,0-.61-1.4,6.771,6.771,0,0,1-2.743.572,6.859,6.859,0,1,1,6.859-6.859.762.762,0,1,0,1.524,0A8.383,8.383,0,0,0,40.392,40Z" transform="translate(-22.07 -27.809)" fill="#0d3548" stroke="#0d3548" stroke-width="0.2"/>
    <path id="Path_58951" data-name="Path 58951" d="M50.21,54.792l-3.654,3.65-1.939-1.936a.762.762,0,0,0-1.075,1.075l2.477,2.477a.762.762,0,0,0,1.075,0l4.191-4.191a.762.762,0,0,0-1.075-1.075Z" transform="translate(-29.092 -36.852)" fill="#0d3548" stroke="#0d3548" stroke-width="0.2"/>
    <path id="Path_58952" data-name="Path 58952" d="M68,68.762V85.528a.762.762,0,0,0,.762.762H85.528a.762.762,0,0,0,.762-.762V68.762A.762.762,0,0,0,85.528,68H68.762A.762.762,0,0,0,68,68.762Zm7.621.762h3.048v5.163l-1.17-.613a.762.762,0,0,0-.709,0l-1.17.613Zm-6.1,0H74.1v6.424a.762.762,0,0,0,1.094.682h.023l1.932-1.01,1.932,1.014H79.1a.762.762,0,0,0,1.094-.686V69.524h4.572V84.766H69.524Z" transform="translate(-44.343 -45.14)" fill="#0d3548" stroke="#0d3548" stroke-width="0.2"/>
    <path id="Path_58953" data-name="Path 58953" d="M7.144,21.584l1.09-.762V42.3A.762.762,0,0,0,9,43.06h18.29a.762.762,0,0,0,0-1.524H9.757V19.77L24.237,9.7,38.716,19.988V28.58a.762.762,0,1,0,1.524,0v-7.5l.7.5a.762.762,0,0,0,.884-1.242L24.679,8.145a.762.762,0,0,0-.876,0L6.275,20.338a.762.762,0,1,0,.869,1.25Z" transform="translate(-5.915 -8.007)" fill="#0d3548" stroke="#0d3548" stroke-width="0.2"/>
  </g>
</svg>
