<svg xmlns="http://www.w3.org/2000/svg" width="39.032" height="28.968" viewBox="0 0 39.032 28.968">
  <g id="truck" transform="translate(0 0)">
    <g id="Group_41092" data-name="Group 41092" transform="translate(7.623 4.574)">
      <g id="Group_41091" data-name="Group 41091">
        <path id="Path_38856" data-name="Path 38856" d="M100.757,126.006a.762.762,0,1,0,.762.762A.763.763,0,0,0,100.757,126.006Z" transform="translate(-99.995 -126.006)" fill="#0d3548"/>
      </g>
    </g>
    <g id="Group_41094" data-name="Group 41094" transform="translate(0 0)">
      <g id="Group_41093" data-name="Group 41093">
        <path id="Path_38857" data-name="Path 38857" d="M35.9,77.1,34.8,74.9a2.275,2.275,0,0,0-2.046-1.265H26.376V68.295a2.29,2.29,0,0,0-2.287-2.287H2.287A2.29,2.29,0,0,0,0,68.295v19.82A2.29,2.29,0,0,0,2.287,90.4H4.574a4.555,4.555,0,0,0,1.168,3.049H.762a.762.762,0,0,0,0,1.525H38.268a.762.762,0,0,0,0-1.525H36.337A4.555,4.555,0,0,0,37.505,90.4c0-.043,0-.087,0-.13a2.29,2.29,0,0,0,1.528-2.157V83.9C39.03,83.012,39.206,83.842,35.9,77.1Zm-1.153,1.1,2.287,4.574H29.425V78.205ZM1.525,84.3H3.049v1.525H1.525Zm7.623,9.148A3.053,3.053,0,0,1,6.1,90.4a3.009,3.009,0,0,1,.062-.611,3.049,3.049,0,0,1,5.975,0v0a3,3,0,0,1,.061.608A3.053,3.053,0,0,1,9.148,93.451Zm0-7.623a4.59,4.59,0,0,0-4.312,3.049H2.287a.763.763,0,0,1-.762-.762v-.762H3.812a.762.762,0,0,0,.762-.762V83.541a.762.762,0,0,0-.762-.762H1.525V68.295a.763.763,0,0,1,.762-.762h21.8a.763.763,0,0,1,.762.762V88.878H13.46A4.59,4.59,0,0,0,9.148,85.828Zm3.405,7.623A4.555,4.555,0,0,0,13.721,90.4H28.358a4.555,4.555,0,0,0,1.168,3.049Zm20.379,0A3.053,3.053,0,0,1,29.882,90.4a3.009,3.009,0,0,1,.062-.611,3.049,3.049,0,0,1,5.975,0v0a3,3,0,0,1,.061.608A3.053,3.053,0,0,1,32.932,93.451Zm4.574-5.336a.761.761,0,0,1-.316.617,4.574,4.574,0,0,0-8.57.146H26.376V75.156h6.376a.758.758,0,0,1,.682.422l.551,1.1H28.663a.762.762,0,0,0-.762.762v6.1a.762.762,0,0,0,.762.762h8.843Z" transform="translate(0 -66.008)" fill="#0d3548"/>
      </g>
    </g>
    <g id="Group_41096" data-name="Group 41096" transform="translate(10.672 4.574)">
      <g id="Group_41095" data-name="Group 41095">
        <path id="Path_38858" data-name="Path 38858" d="M150.361,126.006h-9.605a.762.762,0,0,0,0,1.525h9.605a.762.762,0,0,0,0-1.525Z" transform="translate(-139.994 -126.006)" fill="#0d3548"/>
      </g>
    </g>
    <g id="Group_41098" data-name="Group 41098" transform="translate(13.721 7.623)">
      <g id="Group_41097" data-name="Group 41097" transform="translate(0 0)">
        <path id="Path_38859" data-name="Path 38859" d="M187.31,166h-6.556a.762.762,0,0,0,0,1.525h6.556a.762.762,0,1,0,0-1.525Z" transform="translate(-179.992 -166.004)" fill="#0d3548"/>
      </g>
    </g>
    <g id="Group_41100" data-name="Group 41100" transform="translate(31.407 22.869)">
      <g id="Group_41099" data-name="Group 41099">
        <path id="Path_38860" data-name="Path 38860" d="M413.508,366a1.525,1.525,0,1,0,1.525,1.525A1.526,1.526,0,0,0,413.508,366Z" transform="translate(-411.983 -365.996)" fill="#0d3548"/>
      </g>
    </g>
    <g id="Group_41102" data-name="Group 41102" transform="translate(7.623 22.869)">
      <g id="Group_41101" data-name="Group 41101">
        <path id="Path_38861" data-name="Path 38861" d="M101.521,366a1.525,1.525,0,1,0,1.525,1.525A1.526,1.526,0,0,0,101.521,366Z" transform="translate(-99.996 -365.996)" fill="#0d3548"/>
      </g>
    </g>
  </g>
</svg>
