<svg xmlns="http://www.w3.org/2000/svg" width="48.278" height="28.968" viewBox="0 0 48.278 28.968">
  <g id="Group_41348" data-name="Group 41348" transform="translate(0 0)">
    <g id="cargo-ship_1_" data-name="cargo-ship (1)" transform="translate(0 0)">
      <path id="Path_38838" data-name="Path 38838" d="M47.473,257.6a4.481,4.481,0,0,1-2.531-.7,6.5,6.5,0,0,0-6.613,0,4.89,4.89,0,0,1-5.057,0,6.494,6.494,0,0,0-6.613,0,4.886,4.886,0,0,1-5.055,0,6.03,6.03,0,0,0-3.306-.9,6.031,6.031,0,0,0-3.3.9,4.462,4.462,0,0,1-2.527.7,4.469,4.469,0,0,1-2.527-.7,6.026,6.026,0,0,0-3.3-.905,6.028,6.028,0,0,0-3.3.9,4.463,4.463,0,0,1-2.527.7.8.8,0,0,0,0,1.609,6.017,6.017,0,0,0,3.3-.905,4.476,4.476,0,0,1,2.527-.7,4.468,4.468,0,0,1,2.527.705,6.024,6.024,0,0,0,3.3.9,6.025,6.025,0,0,0,3.3-.905,4.468,4.468,0,0,1,2.527-.7,4.475,4.475,0,0,1,2.528.705,6.5,6.5,0,0,0,6.612,0,4.886,4.886,0,0,1,5.056,0,6.5,6.5,0,0,0,6.612,0,4.9,4.9,0,0,1,5.061,0,6.032,6.032,0,0,0,3.306.9.8.8,0,0,0,0-1.609Zm0,0" transform="translate(0 -230.24)" fill="#0d3548"/>
      <path id="Path_38839" data-name="Path 38839" d="M0,24.944a.8.8,0,0,0,.8.8,5.981,5.981,0,0,0,3.3-.9,4.5,4.5,0,0,1,2.534-.705,4.5,4.5,0,0,1,2.538.712,6.013,6.013,0,0,0,3.288.9,6.054,6.054,0,0,0,3.312-.906,4.427,4.427,0,0,1,2.522-.7,4.514,4.514,0,0,1,2.545.712,6.49,6.49,0,0,0,6.6-.009,4.426,4.426,0,0,1,2.523-.7,4.514,4.514,0,0,1,2.545.712,6.489,6.489,0,0,0,6.6-.007,4.507,4.507,0,0,1,2.531-.705c.174,0,.336.007.5.022a4.467,4.467,0,0,1,2.027.684,6.038,6.038,0,0,0,3.308.9.8.8,0,0,0,0-1.609,4.473,4.473,0,0,1-2.531-.7A7.06,7.06,0,0,0,43.4,22.76l4.788-9.524a.8.8,0,0,0-.719-1.166H43.45V.8a.8.8,0,0,0-.8-.8H13.679a.8.8,0,0,0-.8.8V14.483H11.265V2.414a.8.8,0,0,0-.8-.8H4.023a.8.8,0,0,0-.795.682l-1.5,9.778H.8a.8.8,0,0,0-.8.8v7.242a.8.8,0,0,0,.115.414l2.058,3.43A4.654,4.654,0,0,1,.8,24.139a.8.8,0,0,0-.8.8ZM37.817,12.07a.805.805,0,0,0-.483.161l-3,2.253h-.537V11.265H41.84v.8ZM24.139,14.483V11.265h8.046v3.219ZM14.483,6.437h8.046V9.656H14.483ZM41.84,9.656H33.794V6.437H41.84Zm-9.655,0H24.139V6.437h8.046ZM41.84,4.828H33.794V1.609H41.84Zm-9.655,0H24.139V1.609h8.046Zm-17.7-3.219h8.046V4.828H14.483Zm0,9.656h8.046v3.219H14.483ZM4.713,3.219H9.655V13.346l-1.04-1.04a.805.805,0,0,0-.569-.236H3.352Zm-3.1,10.46h6.1l2.178,2.178a.8.8,0,0,0,.569.236H34.6a.8.8,0,0,0,.483-.161l3-2.253h8.082l-4.45,8.851h-.081a6.052,6.052,0,0,0-3.308.9,4.89,4.89,0,0,1-5.069-.007,6.488,6.488,0,0,0-6.6.007,4.89,4.89,0,0,1-5.069-.007,6.029,6.029,0,0,0-3.3-.9,5.976,5.976,0,0,0-3.3.9,4.509,4.509,0,0,1-2.534.7,4.5,4.5,0,0,1-2.537-.712,6.019,6.019,0,0,0-3.288-.9c-.2,0-.379.008-.554.02-.059,0-.113.011-.17.017-.112.011-.223.022-.328.038-.062.01-.12.02-.179.031-.092.016-.181.033-.267.053-.057.013-.114.028-.168.042-.081.021-.161.044-.242.069-.049.015-.1.03-.147.046-.08.028-.155.057-.229.086-.039.015-.081.03-.117.046-.09.038-.176.077-.259.117l-.055.025c-.1.049-.2.1-.293.149L1.609,19.893Zm0,0" transform="translate(0 0)" fill="#0d3548"/>
      <path id="Path_38840" data-name="Path 38840" d="M57.609,40h-.8a.8.8,0,0,0,0,1.609h.8a.8.8,0,0,0,0-1.609Zm0,0" transform="translate(-50.368 -35.977)" fill="#0d3548"/>
      <path id="Path_38841" data-name="Path 38841" d="M64.8,177.609h.8a.8.8,0,0,0,0-1.609h-.8a.8.8,0,0,0,0,1.609Zm0,0" transform="translate(-57.563 -158.298)" fill="#0d3548"/>
      <path id="Path_38842" data-name="Path 38842" d="M104.8,177.609h.8a.8.8,0,0,0,0-1.609h-.8a.8.8,0,0,0,0,1.609Zm0,0" transform="translate(-93.54 -158.298)" fill="#0d3548"/>
      <path id="Path_38843" data-name="Path 38843" d="M144.8,177.609h.8a.8.8,0,0,0,0-1.609h-.8a.8.8,0,0,0,0,1.609Zm0,0" transform="translate(-129.517 -158.298)" fill="#0d3548"/>
      <path id="Path_38844" data-name="Path 38844" d="M184.8,177.609h.8a.8.8,0,0,0,0-1.609h-.8a.8.8,0,0,0,0,1.609Zm0,0" transform="translate(-165.494 -158.298)" fill="#0d3548"/>
      <path id="Path_38845" data-name="Path 38845" d="M224.8,177.609h.8a.8.8,0,0,0,0-1.609h-.8a.8.8,0,0,0,0,1.609Zm0,0" transform="translate(-201.471 -158.298)" fill="#0d3548"/>
      <path id="Path_38846" data-name="Path 38846" d="M264.8,177.609h.8a.8.8,0,1,0,0-1.609h-.8a.8.8,0,0,0,0,1.609Zm0,0" transform="translate(-237.448 -158.298)" fill="#0d3548"/>
      <path id="Path_38847" data-name="Path 38847" d="M304.8,177.609h.8a.8.8,0,0,0,0-1.609h-.8a.8.8,0,0,0,0,1.609Zm0,0" transform="translate(-273.424 -158.298)" fill="#0d3548"/>
      <path id="Path_38848" data-name="Path 38848" d="M344.8,177.609h.8a.8.8,0,0,0,0-1.609h-.8a.8.8,0,0,0,0,1.609Zm0,0" transform="translate(-309.401 -158.298)" fill="#0d3548"/>
      <path id="Path_38849" data-name="Path 38849" d="M384.8,177.609h.8a.8.8,0,0,0,0-1.609h-.8a.8.8,0,0,0,0,1.609Zm0,0" transform="translate(-345.378 -158.298)" fill="#0d3548"/>
    </g>
  </g>
</svg>
