<svg xmlns="http://www.w3.org/2000/svg" width="40" height="48" viewBox="0 0 40 48" fill="none"><path d="M37.4199 0.734863H14.9147C14.0137 0.734863 13.2806 1.50061 13.2806 2.44177V10.1588C10.3243 10.9569 7.64981 12.6948 5.6985 15.098C3.5865 17.6991 2.42325 20.9684 2.42325 24.3034V26.1754C1.04812 26.4188 0 27.6217 0 29.0656V34.1042C0 35.7232 1.31709 37.0402 2.93597 37.0402H4.43756C4.67944 38.0203 5.56566 38.7493 6.61931 38.7493C7.8585 38.7493 8.86659 37.7411 8.86659 36.5019V26.6678C8.86659 25.5771 8.08547 24.6659 7.05337 24.4629C7.24922 19.906 9.48094 16.5281 13.2805 15.015V18.5104C13.2805 19.4516 14.0136 20.2173 14.9146 20.2173H16.3653V26.2232C16.3653 26.3682 16.4073 26.5101 16.4863 26.6317C16.5652 26.7533 16.6777 26.8494 16.8102 26.9084C16.9426 26.9673 17.0893 26.9867 17.2325 26.964C17.3757 26.9414 17.5093 26.8777 17.617 26.7807L24.9091 20.2172H26.2219C26.8851 21.6811 27.0678 22.9651 27.094 24.4607C26.0561 24.6589 25.269 25.5729 25.269 26.6677V36.5018C25.269 37.741 26.2772 38.7492 27.5164 38.7492C27.7511 38.7492 27.9775 38.7128 28.1904 38.6458C27.9171 42.1109 26.768 43.7733 23.04 43.7733H20.7487C20.4226 42.6421 19.3786 41.812 18.1437 41.812H15.9919C14.4968 41.812 13.2805 43.0283 13.2805 44.5233C13.2805 46.0184 14.4968 47.2348 15.9919 47.2348H18.1437C19.3786 47.2348 20.4225 46.4046 20.7487 45.2733H23.04C28.9735 45.2733 29.7067 41.2894 29.7597 37.0401H31.1997C32.8187 37.0401 34.1357 35.723 34.1357 34.1041V29.0656C34.1357 27.6229 33.0895 26.4209 31.7163 26.176C31.7274 24.1168 31.7271 22.2833 31.1282 20.2173H37.4198C38.3208 20.2173 39.0539 19.4516 39.0539 18.5104V2.44177C39.0539 1.50061 38.321 0.734863 37.4199 0.734863ZM18.1438 45.735H15.992C15.324 45.735 14.7806 45.1915 14.7806 44.5235C14.7806 43.8556 15.324 43.3122 15.992 43.3122H18.1438C18.8118 43.3122 19.3552 43.8556 19.3552 44.5235C19.3552 45.1915 18.8118 45.735 18.1438 45.735ZM1.50009 34.1042V29.0656C1.50009 28.2738 2.14425 27.6297 2.93606 27.6297H4.37203V35.5403H2.93606C2.14425 35.5403 1.50009 34.8961 1.50009 34.1043V34.1042ZM7.36669 26.6679V36.502C7.36669 36.9141 7.03144 37.2494 6.61931 37.2494C6.20719 37.2494 5.87203 36.9141 5.87203 36.502V26.6679C5.87203 26.2558 6.20719 25.9205 6.61931 25.9205C7.03144 25.9205 7.36669 26.2558 7.36669 26.6679ZM7.55597 17.7851C6.30384 19.6965 5.61262 22.0781 5.54437 24.6949C4.99884 24.9934 4.59019 25.5116 4.43766 26.1297H3.92325V24.3035C3.92325 18.5281 7.80572 13.3813 13.2806 11.7195V13.4148C10.831 14.2556 8.90634 15.7238 7.55597 17.7851ZM27.5164 37.2494C27.1042 37.2494 26.7691 36.9141 26.7691 36.502V26.6679C26.7691 26.2558 27.1043 25.9205 27.5165 25.9205C27.9286 25.9205 28.2638 26.2558 28.2638 26.6679V36.4594H28.2634L28.2633 36.5139C28.2568 36.9204 27.9246 37.2494 27.5165 37.2494H27.5164ZM32.6358 29.0656V34.1042C32.6358 34.8961 31.9916 35.5402 31.1998 35.5402H29.7638V27.6296H31.1998C31.9916 27.6296 32.6358 28.2737 32.6358 29.0656V29.0656ZM30.2166 26.1297H29.6982C29.5462 25.5137 29.1397 24.997 28.5969 24.698C28.5862 23.1487 28.4347 21.7462 27.8468 20.2174H29.5583C30.2227 22.2361 30.228 23.9892 30.2166 26.1296V26.1297ZM37.5539 18.5105C37.5539 18.6349 37.4733 18.7174 37.4198 18.7174H24.6212C24.4359 18.7174 24.2571 18.786 24.1194 18.91L17.8652 24.5393V19.4674C17.8652 19.2685 17.7862 19.0777 17.6455 18.9371C17.5049 18.7964 17.3141 18.7174 17.1152 18.7174H14.9145C14.8612 18.7174 14.7804 18.6349 14.7804 18.5105V2.44177C14.7804 2.31736 14.8611 2.23486 14.9145 2.23486H37.4197C37.4731 2.23486 37.5538 2.31736 37.5538 2.44177V18.5105H37.5539ZM34.2313 6.30371C34.2313 6.50262 34.1523 6.69338 34.0116 6.83404C33.871 6.97469 33.6802 7.05371 33.4813 7.05371H18.6937C18.4947 7.05371 18.304 6.97469 18.1633 6.83404C18.0227 6.69338 17.9437 6.50262 17.9437 6.30371C17.9437 6.10479 18.0227 5.91403 18.1633 5.77338C18.304 5.63272 18.4947 5.55371 18.6937 5.55371H33.4813C33.6802 5.55371 33.871 5.63272 34.0116 5.77338C34.1523 5.91403 34.2313 6.10479 34.2313 6.30371ZM34.2313 10.4761C34.2313 10.6751 34.1523 10.8658 34.0116 11.0065C33.871 11.1471 33.6802 11.2261 33.4813 11.2261H18.6937C18.4947 11.2261 18.304 11.1471 18.1633 11.0065C18.0227 10.8658 17.9437 10.6751 17.9437 10.4761C17.9437 10.2772 18.0227 10.0865 18.1633 9.94582C18.304 9.80516 18.4947 9.72615 18.6937 9.72615H33.4813C33.6802 9.72615 33.871 9.80516 34.0116 9.94582C34.1523 10.0865 34.2313 10.2772 34.2313 10.4761ZM24.0742 14.6486C24.0742 14.8475 23.9951 15.0383 23.8545 15.1789C23.7138 15.3196 23.5231 15.3986 23.3242 15.3986H18.6936C18.4946 15.3986 18.3039 15.3196 18.1632 15.1789C18.0226 15.0383 17.9436 14.8475 17.9436 14.6486C17.9436 14.4497 18.0226 14.2589 18.1632 14.1183C18.3039 13.9776 18.4946 13.8986 18.6936 13.8986H23.3242C23.5231 13.8986 23.7138 13.9776 23.8545 14.1183C23.9951 14.2589 24.0742 14.4497 24.0742 14.6486ZM12.9873 31.585C12.9873 31.7839 12.9083 31.9747 12.7676 32.1153C12.627 32.256 12.4362 32.335 12.2373 32.335H12.1758C11.9769 32.335 11.7861 32.256 11.6455 32.1153C11.5048 31.9747 11.4258 31.7839 11.4258 31.585C11.4258 31.3861 11.5048 31.1953 11.6455 31.0547C11.7861 30.914 11.9769 30.835 12.1758 30.835H12.2373C12.4362 30.835 12.627 30.914 12.7676 31.0547C12.9083 31.1953 12.9873 31.3861 12.9873 31.585ZM15.4166 32.335C15.2177 32.335 15.0269 32.256 14.8863 32.1153C14.7456 31.9747 14.6666 31.7839 14.6666 31.585C14.6666 31.3861 14.7456 31.1953 14.8863 31.0547C15.0269 30.914 15.2177 30.835 15.4166 30.835H15.4781C15.677 30.835 15.8678 30.914 16.0085 31.0547C16.1491 31.1953 16.2281 31.3861 16.2281 31.585C16.2281 31.7839 16.1491 31.9747 16.0085 32.1153C15.8678 32.256 15.677 32.335 15.4781 32.335H15.4166ZM18.6576 32.335C18.4586 32.335 18.2679 32.256 18.1272 32.1153C17.9866 31.9747 17.9076 31.7839 17.9076 31.585C17.9076 31.3861 17.9866 31.1953 18.1272 31.0547C18.2679 30.914 18.4586 30.835 18.6576 30.835H18.7191C18.918 30.835 19.1087 30.914 19.2494 31.0547C19.39 31.1953 19.4691 31.3861 19.4691 31.585C19.4691 31.7839 19.39 31.9747 19.2494 32.1153C19.1087 32.256 18.918 32.335 18.7191 32.335H18.6576ZM21.8984 32.3301C21.6995 32.3301 21.5087 32.2511 21.3681 32.1104C21.2274 31.9698 21.1484 31.779 21.1484 31.5801C21.1484 31.3812 21.2274 31.1904 21.3681 31.0498C21.5087 30.9091 21.6995 30.8301 21.8984 30.8301H21.9599C22.1588 30.8301 22.3496 30.9091 22.4902 31.0498C22.6309 31.1904 22.7099 31.3812 22.7099 31.5801C22.7099 31.779 22.6309 31.9698 22.4902 32.1104C22.3496 32.2511 22.1588 32.3301 21.9599 32.3301H21.8984Z" fill="#090909"></path></svg>