<svg xmlns="http://www.w3.org/2000/svg" width="32.8" height="35.042" viewBox="0 0 32.8 35.042">
  <defs>
    <style>
      .cls-1 {
        fill: #ed1c24;
      }
    </style>
  </defs>
  <path id="feedback" class="cls-1" d="M19.993,2.922a.548.548,0,0,1,.548-.548h0a.548.548,0,1,1-.548.548Zm3.2.548a.548.548,0,0,0,0-1.1h0a.548.548,0,0,0,0,1.1Zm2.653,0a.548.548,0,0,0,0-1.1h0a.548.548,0,1,0,0,1.1Zm12.677,0h0a.548.548,0,1,0-.548-.548.548.548,0,0,0,.548.548Zm1.842,0H44.7a.548.548,0,1,0,0-1.1H40.366a.548.548,0,1,0,0,1.1Zm-3.491,0a.548.548,0,0,0,0-1.1h0a.548.548,0,1,0,0,1.1ZM24.327,34.495V30.434H21.782A2.239,2.239,0,0,1,19.545,28.2V26.152H18.26a1.881,1.881,0,0,1-1.878-1.878V1.878A1.881,1.881,0,0,1,18.26,0H47.3a1.881,1.881,0,0,1,1.878,1.878V24.273A1.881,1.881,0,0,1,47.3,26.152H46.019V28.2a2.239,2.239,0,0,1-2.237,2.237H33l-7.855,4.535a.548.548,0,0,1-.821-.474ZM17.477,1.878V4.75h30.61V1.878A.784.784,0,0,0,47.3,1.1H18.26A.784.784,0,0,0,17.477,1.878Zm2.068,23.178V12.846a2.239,2.239,0,0,1,2.237-2.237h22a2.239,2.239,0,0,1,2.237,2.237V25.057H47.3a.784.784,0,0,0,.783-.783V5.845H17.477V24.273a.784.784,0,0,0,.783.784Zm5.329,4.282a.548.548,0,0,1,.548.548v3.66l7.161-4.134a.548.548,0,0,1,.274-.073H43.782A1.143,1.143,0,0,0,44.924,28.2V12.846A1.143,1.143,0,0,0,43.782,11.7h-22a1.143,1.143,0,0,0-1.141,1.142V28.2a1.143,1.143,0,0,0,1.142,1.142Zm2.2-9.61a.548.548,0,0,1,.309-.951l3.48-.364,1.421-3.2a.548.548,0,0,1,1,0l1.421,3.2,3.48.364a.548.548,0,0,1,.309.951l-2.6,2.34.729,3.422a.548.548,0,0,1-.81.588l-3.029-1.751-3.029,1.751a.548.548,0,0,1-.81-.588l.729-3.422Zm1.648.009,1.921,1.728a.548.548,0,0,1,.169.521l-.539,2.527,2.237-1.293a.548.548,0,0,1,.548,0l2.237,1.293-.539-2.527a.548.548,0,0,1,.169-.521l1.921-1.728-2.569-.269a.548.548,0,0,1-.443-.322l-1.05-2.361-1.049,2.361a.548.548,0,0,1-.443.322Z" transform="translate(-16.382)"/>
</svg>
