<svg xmlns="http://www.w3.org/2000/svg" width="35.465" height="35.547" viewBox="0 0 35.465 35.547">
  <g id="customer-service" transform="translate(-0.572)">
    <g id="Group_41363" data-name="Group 41363" transform="translate(0.573 5.733)">
      <g id="Group_41362" data-name="Group 41362" transform="translate(0)">
        <path id="Path_59065" data-name="Path 59065" d="M29.387,105.227l-1.327-3.982a4.013,4.013,0,0,0-3.09-2.679l-3.832-.7v-.3a5.77,5.77,0,0,0,1.709-1.518H24a1.722,1.722,0,0,0,1.72-1.72v-6.88a7.453,7.453,0,1,0-14.907,0v4.013a2.3,2.3,0,0,0,1.828,2.246A5.744,5.744,0,0,0,15.4,97.571v.3l-3.832.7a4.013,4.013,0,0,0-3.089,2.679l-.229.689L6.3,99.98a.574.574,0,0,1,0-.811l2.265-2.264L4.315,92.654,1.755,95.214a4.013,4.013,0,0,0,0,5.676L9.5,108.638a4.011,4.011,0,0,0,5.658.017l2.793-2.559-.871-.869ZM24.578,94.334a.574.574,0,0,1-.573.573h-.482a5.7,5.7,0,0,0,.374-1.194,2.271,2.271,0,0,0,.682-.271ZM24,92.454V90.48a1.137,1.137,0,0,1,0,1.975Zm-11.467,0a1.137,1.137,0,0,1,0-1.975Zm0-3.854v.655a2.274,2.274,0,0,0-.573.237V87.453a6.307,6.307,0,1,1,12.614,0v2.039A2.253,2.253,0,0,0,24,89.255V88.6h-.573a6.308,6.308,0,0,1-4.489-1.859l-.671-.671-.671.671A6.308,6.308,0,0,1,13.111,88.6Zm1.147,4.013V89.725a7.433,7.433,0,0,0,4.587-2.038,7.43,7.43,0,0,0,4.587,2.038v2.889a4.552,4.552,0,0,1-.62,2.293H18.271v1.147h3.024a4.579,4.579,0,0,1-7.611-3.44Zm6.307,5.469v.027l-1.72,1.72-1.72-1.72v-.027a5.729,5.729,0,0,0,3.44,0ZM9.57,101.607a2.868,2.868,0,0,1,2.207-1.914l4.008-.728,2.487,2.487,2.486-2.486,4.007.728a2.867,2.867,0,0,1,2.207,1.914l.825,2.473H15.937L13.7,101.847l-2.481,2.245a.586.586,0,0,1-.811,0L9.16,102.84ZM4.314,94.276l2.629,2.629-.623.623L3.692,94.9Zm10.054,13.553a2.867,2.867,0,0,1-4.054,0l-7.749-7.748a2.867,2.867,0,0,1,0-4.054l.315-.315L5.51,98.339l-.021.021a1.723,1.723,0,0,0,0,2.433L9.6,104.9a1.711,1.711,0,0,0,1.217.5,1.688,1.688,0,0,0,1.2-.484l.043-.038,2.641,2.641Zm1.175-1.078-2.636-2.636.757-.685,2.631,2.631Z" transform="translate(-0.58 -80)" fill="#fff"/>
      </g>
    </g>
    <g id="Group_41365" data-name="Group 41365" transform="translate(24.57)">
      <g id="Group_41364" data-name="Group 41364">
        <path id="Path_59066" data-name="Path 59066" d="M345.175,0h-8.027a1.722,1.722,0,0,0-1.72,1.72V6.307a1.722,1.722,0,0,0,1.72,1.72h1.531l-.593,3.458,5.533-3.458h1.555a1.722,1.722,0,0,0,1.72-1.72V1.72A1.722,1.722,0,0,0,345.175,0Zm.573,6.307a.574.574,0,0,1-.573.573H343.29l-3.641,2.276.39-2.276h-2.891a.574.574,0,0,1-.573-.573V1.72a.574.574,0,0,1,.573-.573h8.027a.574.574,0,0,1,.573.573Z" transform="translate(-335.428)" fill="#fff"/>
      </g>
    </g>
    <g id="Group_41367" data-name="Group 41367" transform="translate(26.864 2.293)">
      <g id="Group_41366" data-name="Group 41366">
        <rect id="Rectangle_3862" data-name="Rectangle 3862" width="6.88" height="1.147" fill="#fff"/>
      </g>
    </g>
    <g id="Group_41369" data-name="Group 41369" transform="translate(26.864 4.587)">
      <g id="Group_41368" data-name="Group 41368">
        <rect id="Rectangle_3863" data-name="Rectangle 3863" width="4.587" height="1.147" fill="#fff"/>
      </g>
    </g>
    <g id="Group_41371" data-name="Group 41371" transform="translate(32.597 4.587)">
      <g id="Group_41370" data-name="Group 41370">
        <rect id="Rectangle_3864" data-name="Rectangle 3864" width="1.147" height="1.147" fill="#fff"/>
      </g>
    </g>
    <g id="Group_41373" data-name="Group 41373" transform="translate(0.572 1.72)">
      <g id="Group_41372" data-name="Group 41372" transform="translate(0)">
        <path id="Path_59067" data-name="Path 59067" d="M18.264,24A16.043,16.043,0,0,0,2.642,36.41L1.555,34.6l-.983.59,2.015,3.358,3.358-2.015-.59-.983L3.8,36.481A14.911,14.911,0,0,1,22.681,25.812l.339-1.1A16.043,16.043,0,0,0,18.264,24Z" transform="translate(-0.572 -24)" fill="#fff"/>
      </g>
    </g>
    <g id="Group_41375" data-name="Group 41375" transform="translate(29.846 10.68)">
      <g id="Group_41374" data-name="Group 41374">
        <path id="Path_59068" data-name="Path 59068" d="M414.949,151.031l-3.358-2.015-2.015,3.359.983.59,1-1.672a14.92,14.92,0,0,1-2.527,14.2l.89.722A16.056,16.056,0,0,0,412.674,151l1.685,1.011Z" transform="translate(-409.036 -149.016)" fill="#fff"/>
      </g>
    </g>
  </g>
</svg>
