<svg xmlns="http://www.w3.org/2000/svg" width="110.405" height="82.805" viewBox="0 0 110.405 82.805">
  <g id="departures" transform="translate(0 -63.997)">
    <g id="Group_41082" data-name="Group 41082" transform="translate(0 68.599)">
      <g id="Group_41081" data-name="Group 41081">
        <path id="Path_38851" data-name="Path 38851" d="M89.7,85.336c-13,0-27.937,6.822-28.567,7.107a2.3,2.3,0,0,0,1.927,4.182c.147-.069,14.656-6.689,26.64-6.689,11.73,0,16.1,2.82,16.1,4.6,0,8.579-72.011,36.8-87.4,36.8-2.585,0-9.513,0-12.761-.589a48.487,48.487,0,0,1,6.914-4.269,2.3,2.3,0,0,0,.86-3.321L5.262,110.927l2.093-2.093,16.915,8.46a2.31,2.31,0,0,0,2.056,0l13.8-6.9a2.3,2.3,0,1,0-2.056-4.113L25.3,112.666l-17.37-8.69a2.294,2.294,0,0,0-2.654.432l-4.6,4.6a2.3,2.3,0,0,0-.29,2.9l7.8,11.694C0,128.173,0,130.441,0,131.338c0,4.145,5.893,4.6,18.4,4.6,12.246,0,92-26.934,92-41.4C110.4,91.767,108.39,85.336,89.7,85.336Z" transform="translate(0 -85.336)" fill="#fff"/>
      </g>
    </g>
    <g id="Group_41084" data-name="Group 41084" transform="translate(9.198 63.997)">
      <g id="Group_41083" data-name="Group 41083">
        <path id="Path_38852" data-name="Path 38852" d="M102.442,79.814a2.3,2.3,0,0,0-1.624-1.918l-46-13.8a2.3,2.3,0,0,0-2.286.575l-9.2,9.2a2.3,2.3,0,0,0,.488,3.625l32.2,18.4a2.3,2.3,0,0,0,2.323-.023l23-13.8A2.307,2.307,0,0,0,102.442,79.814ZM77.127,91.236,48.712,75l6.1-6.1,39.69,11.91Z" transform="translate(-42.656 -63.997)" fill="#fff"/>
      </g>
    </g>
    <g id="Group_41086" data-name="Group 41086" transform="translate(87.408 70.899)">
      <g id="Group_41085" data-name="Group 41085">
        <path id="Path_38853" data-name="Path 38853" d="M421.448,96c-9.927,0-15.19,5.042-15.411,5.253a2.3,2.3,0,0,0,3.206,3.3c.17-.161,4.251-3.956,12.2-3.956a2.3,2.3,0,0,0,0-4.6Z" transform="translate(-405.351 -96.002)" fill="#fff"/>
      </g>
    </g>
    <g id="Group_41088" data-name="Group 41088" transform="translate(57.503 96.195)">
      <g id="Group_41087" data-name="Group 41087">
        <path id="Path_38854" data-name="Path 38854" d="M301.109,242.658l-6.9-27.6a2.3,2.3,0,1,0-4.462,1.113l6.449,25.812-5.907,2.953L270.752,221.06a2.3,2.3,0,1,0-3.565,2.912l20.7,25.3a2.3,2.3,0,0,0,2.82.6l9.2-4.6A2.3,2.3,0,0,0,301.109,242.658Z" transform="translate(-266.667 -213.312)" fill="#fff"/>
      </g>
    </g>
    <g id="Group_41090" data-name="Group 41090" transform="translate(0 142.202)">
      <g id="Group_41089" data-name="Group 41089">
        <path id="Path_38855" data-name="Path 38855" d="M52.9,426.669H2.3a2.3,2.3,0,0,0,0,4.6H52.9a2.3,2.3,0,1,0,0-4.6Z" transform="translate(0 -426.669)" fill="#fff"/>
      </g>
    </g>
  </g>
</svg>
