<svg xmlns="http://www.w3.org/2000/svg" width="23.739" height="15.742" viewBox="0 0 23.739 15.742">
  <path id="Path_38884" data-name="Path 38884" d="M0,1.454v13.67A1.039,1.039,0,0,0,1.036,16.16H22.709a1.038,1.038,0,0,0,1.03-1.036V1.454A1.03,1.03,0,0,0,22.709.418H1.036A1.031,1.031,0,0,0,0,1.454M11.531,9.84l-9.4-8.252H21.605L12.214,9.84a.519.519,0,0,1-.683,0M7.99,8.286,1.164,14.277V2.3Zm.884.774,2.316,2.03a1.024,1.024,0,0,0,1.365,0l2.31-2.03,6.747,5.93H2.127Zm6.875-.774L22.574,2.3V14.277Z" transform="translate(0 -0.418)" fill="#b02bb5"/>
</svg>
