<svg xmlns="http://www.w3.org/2000/svg" width="20.506" height="20.5" viewBox="0 0 20.506 20.5">
  <g id="problem-solving" transform="translate(0.5 0.5)">
    <g id="Group_41108" data-name="Group 41108" transform="translate(4.501 4.575)">
      <g id="Group_41107" data-name="Group 41107" transform="translate(3.727 1.847)">
        <path id="Path_38885" data-name="Path 38885" d="M218.381,175.273A1.522,1.522,0,1,1,219.9,176.8v1.187" transform="translate(-218.381 -173.751)" fill="none" stroke="#cc8e01" stroke-linecap="round" stroke-linejoin="round" stroke-miterlimit="10" stroke-width="1"/>
        <line id="Line_7" data-name="Line 7" transform="translate(1.522 6.655)" fill="none" stroke="#cc8e01" stroke-linecap="round" stroke-linejoin="round" stroke-miterlimit="10" stroke-width="1"/>
      </g>
      <circle id="Ellipse_112" data-name="Ellipse 112" cx="5.252" cy="5.252" r="5.252" transform="translate(0)" fill="none" stroke="#cc8e01" stroke-linecap="round" stroke-linejoin="round" stroke-miterlimit="10" stroke-width="1"/>
    </g>
    <g id="Group_41109" data-name="Group 41109" transform="translate(4.264 4.248)">
      <path id="Path_38886" data-name="Path 38886" d="M133.937,120.39a9.751,9.751,0,0,1-13.547,13.547" transform="translate(-120.39 -120.374)" fill="none" stroke="#cc8e01" stroke-linecap="round" stroke-linejoin="round" stroke-miterlimit="10" stroke-width="1"/>
      <line id="Line_8" data-name="Line 8" x1="1.5" transform="translate(13.742 0.328)" fill="none" stroke="#cc8e01" stroke-linecap="round" stroke-linejoin="round" stroke-miterlimit="10" stroke-width="1"/>
      <line id="Line_9" data-name="Line 9" y1="1.565" x2="0.691" transform="translate(12.846 0)" fill="none" stroke="#cc8e01" stroke-linecap="round" stroke-linejoin="round" stroke-miterlimit="10" stroke-width="1"/>
    </g>
    <g id="Group_41110" data-name="Group 41110" transform="translate(0 0)">
      <path id="Path_38887" data-name="Path 38887" d="M16.689,30.236A9.751,9.751,0,0,1,30.236,16.689" transform="translate(-15 -15)" fill="none" stroke="#cc8e01" stroke-linecap="round" stroke-linejoin="round" stroke-miterlimit="10" stroke-width="1"/>
      <line id="Line_10" data-name="Line 10" x2="1.5" transform="translate(0 15.079)" fill="none" stroke="#cc8e01" stroke-linecap="round" stroke-linejoin="round" stroke-miterlimit="10" stroke-width="1"/>
      <line id="Line_11" data-name="Line 11" x1="0.691" y2="1.565" transform="translate(1.699 13.687)" fill="none" stroke="#cc8e01" stroke-linecap="round" stroke-linejoin="round" stroke-miterlimit="10" stroke-width="1"/>
    </g>
  </g>
</svg>
