<svg xmlns="http://www.w3.org/2000/svg" width="93.999" height="93.767" viewBox="0 0 93.999 93.767">
  <g id="exhibitor" transform="translate(-0.5 -0.586)">
    <path id="Path_59175" data-name="Path 59175" d="M2.5,78.007h24a1.5,1.5,0,0,0,1.5-1.5v-21a7.485,7.485,0,0,0-6.869-7.436,9,9,0,1,0-13.263,0A7.485,7.485,0,0,0,1,55.507v21a1.5,1.5,0,0,0,1.5,1.5Zm12-42a6,6,0,1,1-6,6,6,6,0,0,1,6-6Zm3,24v7.5h-6v-7.5Zm-5.419-9h4.837l-2,6h-.837ZM4,55.507a4.5,4.5,0,0,1,4.5-4.5h.419l2,6H10a1.5,1.5,0,0,0-1.5,1.5v10.5a1.5,1.5,0,0,0,1.5,1.5h9a1.5,1.5,0,0,0,1.5-1.5v-10.5a1.5,1.5,0,0,0-1.5-1.5h-.919l2-6H20.5a4.5,4.5,0,0,1,4.5,4.5v19.5H4Z" transform="translate(0 15.846)" fill="#fff" stroke="#fff" stroke-width="1"/>
    <path id="Path_59176" data-name="Path 59176" d="M45,24H24a3,3,0,0,0-3,3V81a1.5,1.5,0,0,0,1.5,1.5h24A1.5,1.5,0,0,0,48,81V27A3,3,0,0,0,45,24Zm0,55.5H24V27H45Z" transform="translate(10 11.353)" fill="#fff" stroke="#fff" stroke-width="1"/>
    <path id="Path_59177" data-name="Path 59177" d="M25.5,44h15A1.5,1.5,0,0,0,42,42.5v-12A1.5,1.5,0,0,0,40.5,29h-15A1.5,1.5,0,0,0,24,30.5v12A1.5,1.5,0,0,0,25.5,44ZM27,32H39v9H27Z" transform="translate(11.5 13.853)" fill="#fff" stroke="#fff" stroke-width="1"/>
    <path id="Path_59178" data-name="Path 59178" d="M38.5,42h-12A1.5,1.5,0,0,0,25,43.5v6A1.5,1.5,0,0,0,26.5,51h12A1.5,1.5,0,0,0,40,49.5v-6A1.5,1.5,0,0,0,38.5,42ZM37,48H28V45h9Z" transform="translate(12 20.353)" fill="#fff" stroke="#fff" stroke-width="1"/>
    <path id="Path_59179" data-name="Path 59179" d="M25,51H40v3H25Z" transform="translate(12 24.853)" fill="#fff" stroke="#fff" stroke-width="1"/>
    <path id="Path_59180" data-name="Path 59180" d="M25,56H40v3H25Z" transform="translate(12 27.353)" fill="#fff" stroke="#fff" stroke-width="1"/>
    <path id="Path_59181" data-name="Path 59181" d="M69.969,53.36a6,6,0,1,0-9.938,0A5.978,5.978,0,0,0,57.5,55.075a5.978,5.978,0,0,0-2.531-1.714,6,6,0,1,0-9.938,0A5.989,5.989,0,0,0,41,59V71a1.5,1.5,0,0,0,1.5,1.5h30A1.5,1.5,0,0,0,74,71V59A5.989,5.989,0,0,0,69.969,53.36ZM50,47a3,3,0,1,1-3,3A3,3,0,0,1,50,47Zm6,22.5H44V59a3,3,0,0,1,3-3h6a3,3,0,0,1,3,3ZM65,47a3,3,0,1,1-3,3A3,3,0,0,1,65,47Zm6,22.5H59V59a3,3,0,0,1,3-3h6a3,3,0,0,1,3,3Z" transform="translate(19.999 21.351)" fill="#fff" stroke="#fff" stroke-width="1"/>
    <path id="Path_59182" data-name="Path 59182" d="M0,0H3V12.093H0Z" transform="matrix(0.263, -0.965, 0.965, 0.263, 17.484, 13.871)" fill="#fff" stroke="#fff" stroke-width="1"/>
    <path id="Path_59183" data-name="Path 59183" d="M0,0H3V12.093H0Z" transform="matrix(0.965, -0.263, 0.263, 0.965, 11.129, 18.134)" fill="#fff" stroke="#fff" stroke-width="1"/>
    <path id="Path_59184" data-name="Path 59184" d="M3.587,5.708A5.242,5.242,0,0,0,4.475,11.9l3.713,3.712a1.5,1.5,0,0,0,2.121,0l5.3-5.3a1.5,1.5,0,0,0,0-2.121L11.9,4.475A5.383,5.383,0,0,0,5.721,3.6L3.414,1.293,1.293,3.414ZM6.6,6.6a2.25,2.25,0,0,1,3.182,0L12.43,9.247,9.248,12.43,6.6,9.779A2.254,2.254,0,0,1,6.6,6.6Z" transform="translate(0.146)" fill="#fff" stroke="#fff" stroke-width="1"/>
    <path id="Path_59185" data-name="Path 59185" d="M0,0H12.093V3H0Z" transform="matrix(0.965, -0.263, 0.263, 0.965, 65.073, 14.178)" fill="#fff" stroke="#fff" stroke-width="1"/>
    <path id="Path_59186" data-name="Path 59186" d="M0,0H12.093V3H0Z" transform="matrix(0.263, -0.965, 0.965, 0.263, 77.821, 29.004)" fill="#fff" stroke="#fff" stroke-width="1"/>
    <path id="Path_59187" data-name="Path 59187" d="M65.505,1.293,63.2,3.6a5.381,5.381,0,0,0-6.178.875L53.308,8.186a1.5,1.5,0,0,0,0,2.121l5.3,5.3a1.5,1.5,0,0,0,2.121,0L64.445,11.9a5.243,5.243,0,0,0,.886-6.191l2.294-2.294ZM62.324,9.779,59.672,12.43,56.489,9.247,59.142,6.6a2.3,2.3,0,0,1,3.181,0,2.254,2.254,0,0,1,0,3.183Z" transform="translate(25.933)" fill="#fff" stroke="#fff" stroke-width="1"/>
    <path id="Path_59188" data-name="Path 59188" d="M0,0H3V12.7H0Z" transform="translate(14.991 16.899) rotate(-44.109)" fill="#fff" stroke="#fff" stroke-width="1"/>
    <path id="Path_59189" data-name="Path 59189" d="M0,0H12.7V3H0Z" transform="translate(69.204 24.109) rotate(-45.891)" fill="#fff" stroke="#fff" stroke-width="1"/>
  </g>
</svg>
