<svg id="cargo-ship_2_" data-name="cargo-ship (2)" xmlns="http://www.w3.org/2000/svg" width="74.877" height="51" viewBox="0 0 74.877 51">
  <defs>
    <style>
      .cls-1, .cls-2 {
        fill: none;
        stroke: #fff;
        stroke-miterlimit: 22.926;
        stroke-width: 2px;
      }

      .cls-1 {
        fill-rule: evenodd;
      }
    </style>
  </defs>
  <path id="Path_58958" data-name="Path 58958" class="cls-1" d="M74.877,397.5c-3.853,0-5.843,3.758-9.36,3.758-3.157,0-5.083-3.028-8.232-3.647m-2.256,0c-3.148.62-5.075,3.647-8.232,3.647-3.517,0-5.507-3.758-9.36-3.758s-5.843,3.758-9.36,3.758-5.506-3.758-9.36-3.758-5.843,3.758-9.36,3.758S3.853,397.5,0,397.5" transform="translate(0 -351.257)"/>
  <path id="Path_58959" data-name="Path 58959" class="cls-1" d="M88.055,296.844c3.4-1.965,6.342-4.948,8.047-11.767L98.3,276.3H77.456l-2.194,4.387H30v4.387l8.641,11.407" transform="translate(-25.613 -247.785)"/>
  <path id="Path_58960" data-name="Path 58960" class="cls-1" d="M269.6,250.689V246.3H234.5v8.775" transform="translate(-200.208 -222.172)"/>
  <path id="Path_58961" data-name="Path 58961" class="cls-1" d="M294,195.077V186.3H267.679v8.775" transform="translate(-228.533 -170.947)"/>
  <path id="Path_58962" data-name="Path 58962" class="cls-1" d="M294.5,143.852v8.775m9.239-17.549V126.3m4.387,8.774v8.775m-8.775-8.775v8.775m12.7,0v4.387m-8.775-4.387v4.387" transform="translate(-251.433 -119.722)"/>
  <path id="Path_58963" data-name="Path 58963" class="cls-1" d="M60.857,195.076l1.1-8.774H76.212v8.774" transform="translate(-51.957 -170.947)"/>
  <path id="Path_58964" data-name="Path 58964" class="cls-1" d="M105.857,96.658V90.078h6.581m0-8.775V96.658" transform="translate(-90.376 -81.303)"/>
  <line id="Line_72" data-name="Line 72" class="cls-2" y2="6.581" transform="translate(17.675 2.194)"/>
  <path id="Path_58965" data-name="Path 58965" class="cls-1" d="M315.227,135.078V126.3H297.678v3.29m0,2.194v3.29" transform="translate(-254.144 -119.722)"/>
  <path id="Path_58966" data-name="Path 58966" class="cls-1" d="M48.949,246.3H22.5m3.29,0v8.775m19.868,0V246.3" transform="translate(-19.21 -222.171)"/>
  <path id="Path_58967" data-name="Path 58967" class="cls-1" d="M95.243,216.3h2.194m-6.581,0H93.05" transform="translate(-77.569 -196.559)"/>
  <line id="Line_73" data-name="Line 73" class="cls-2" x2="66.239" transform="translate(4.089 37.145)"/>
  <path id="Path_58968" data-name="Path 58968" class="cls-1" d="M423.868,306.3h2.194m-6.581,0h2.194" transform="translate(-358.134 -273.397)"/>
</svg>
