<svg xmlns="http://www.w3.org/2000/svg" xmlns:xlink="http://www.w3.org/1999/xlink" width="18" height="18" viewBox="0 0 18 18">
  <defs>
    <clipPath id="clip-path">
      <rect id="Rectangle_3747" data-name="Rectangle 3747" width="18" height="18" transform="translate(0 0)" fill="#1a9653"/>
    </clipPath>
  </defs>
  <g id="Group_41105" data-name="Group 41105" clip-path="url(#clip-path)">
    <path id="Path_38881" data-name="Path 38881" d="M13.827,10.069a1.724,1.724,0,0,0-1.249-.574,1.777,1.777,0,0,0-1.262.57l-1.17,1.166c-.1-.053-.193-.1-.285-.149-.131-.066-.259-.131-.364-.2A12.68,12.68,0,0,1,6.452,8.114a7.537,7.537,0,0,1-.995-1.578c.3-.276.583-.565.854-.841.105-.105.21-.21.311-.316a1.693,1.693,0,0,0,0-2.555L5.615,1.813c-.114-.114-.232-.232-.346-.351C5.05,1.234,4.817,1,4.576.774A1.754,1.754,0,0,0,3.336.231,1.8,1.8,0,0,0,2.083.774L2.074.783.816,2.05a2.72,2.72,0,0,0-.8,1.722A6.457,6.457,0,0,0,.488,6.51,15.976,15.976,0,0,0,3.314,11.23a17.452,17.452,0,0,0,5.793,4.535,9.06,9.06,0,0,0,3.251.96c.079,0,.158.009.232.009a2.776,2.776,0,0,0,2.134-.92l.013-.018a8.385,8.385,0,0,1,.649-.666c.158-.153.32-.311.482-.478a1.852,1.852,0,0,0,.557-1.28,1.772,1.772,0,0,0-.57-1.266ZM15.15,13.96h0c-.145.153-.294.3-.451.451a9.611,9.611,0,0,0-.714.741,1.778,1.778,0,0,1-1.389.587c-.053,0-.114,0-.171,0a8.086,8.086,0,0,1-2.883-.863A16.458,16.458,0,0,1,4.09,10.595a15.009,15.009,0,0,1-2.664-4.43,5.271,5.271,0,0,1-.412-2.314,1.677,1.677,0,0,1,.508-1.1L2.784,1.493a.832.832,0,0,1,.561-.263.79.79,0,0,1,.539.259L3.9,1.5c.223.21.438.429.666.662.114.118.232.237.351.359L5.922,3.531a.705.705,0,0,1,0,1.144c-.11.11-.21.215-.32.32-.307.316-.6.613-.925.9l-.018.009a.756.756,0,0,0-.193.846l.009.035a7.956,7.956,0,0,0,1.2,1.946v0a13.614,13.614,0,0,0,3.282,2.989c.153.1.307.171.456.245.131.066.259.131.368.2l.044.026a.8.8,0,0,0,.364.092.79.79,0,0,0,.561-.254l1.266-1.266a.849.849,0,0,1,.557-.276.747.747,0,0,1,.535.272L15.146,12.8a.731.731,0,0,1,0,1.157" transform="translate(0.011 0.78)" fill="#1a9653"/>
    <path id="Path_38882" data-name="Path 38882" d="M2.474,1.714A4.758,4.758,0,0,1,6.348,5.587.49.49,0,0,0,6.839,6l.088,0a.5.5,0,0,0,.408-.578,5.688,5.688,0,0,0-1.6-3.085A5.688,5.688,0,0,0,2.649.732a.5.5,0,0,0-.578.4.5.5,0,0,0,.4.578" transform="translate(6.991 2.452)" fill="#1a9653"/>
    <path id="Path_38883" data-name="Path 38883" d="M10.393,7.725A9.461,9.461,0,0,0,2.676.008a.5.5,0,1,0-.162.982,8.383,8.383,0,0,1,4.54,2.358,8.383,8.383,0,0,1,2.358,4.54A.494.494,0,0,0,9.9,8.3l.083-.009a.488.488,0,0,0,.408-.57" transform="translate(7.1 0)" fill="#1a9653"/>
  </g>
</svg>
