<svg xmlns="http://www.w3.org/2000/svg" width="31.582" height="34.504" viewBox="0 0 31.582 34.504">
  <g id="shipping" transform="translate(0 0)">
    <g id="Group_41350" data-name="Group 41350" transform="translate(0 23.391)">
      <g id="Group_41349" data-name="Group 41349" transform="translate(0)">
        <path id="Path_59028" data-name="Path 59028" d="M51.412,324.15a2.131,2.131,0,0,0-1.164-1.195,2.092,2.092,0,0,0-1.638,0l-3.792,1.61a2,2,0,0,0,.019-.211,2.047,2.047,0,0,0-2.047-2.047H38.255A2.978,2.978,0,0,1,36.933,322a13.743,13.743,0,0,0-6.11-1.443H30.51a.585.585,0,1,0,0,1.17h.313a12.558,12.558,0,0,1,5.587,1.319,4.145,4.145,0,0,0,1.845.435h4.537a.877.877,0,0,1,.194,1.732c-.077.007-.152.023-.23.023H35.773a.585.585,0,1,0,0,1.17h7.018c.012,0,.023,0,.035,0a3.617,3.617,0,0,0,1.35-.285l4.889-2.076a.927.927,0,0,1,.73,0,.966.966,0,0,1,.526.544,1,1,0,0,1-.016.778.964.964,0,0,1-.541.518l-9.034,3.445a8.948,8.948,0,0,1-6.58-.071l-4.81-2v-6.7a.585.585,0,0,0-.585-.585H24.077a.585.585,0,0,0-.585.585H20.568a.585.585,0,1,0,0,1.17h2.924v2.924a.585.585,0,1,0,1.17,0v-3.509h3.509v7.018H24.662v-1.17a.585.585,0,0,0-1.17,0v.585H20.568a.585.585,0,1,0,0,1.17h2.924a.585.585,0,0,0,.585.585h4.679a.585.585,0,0,0,.585-.585v-.223l4.366,1.813a10.124,10.124,0,0,0,7.443.082l9.034-3.445a2.126,2.126,0,0,0,1.195-1.139A2.164,2.164,0,0,0,51.412,324.15Z" transform="translate(-19.983 -319.968)" fill="#0d3548"/>
      </g>
    </g>
    <g id="Group_41352" data-name="Group 41352" transform="translate(4.094 0)">
      <g id="Group_41351" data-name="Group 41351" transform="translate(0 0)">
        <path id="Path_59029" data-name="Path 59029" d="M102.86,4.52V4.5a.577.577,0,0,0-.1-.184c-.013-.017-.029-.029-.044-.044a.6.6,0,0,0-.113-.089.65.65,0,0,0-.067-.034.547.547,0,0,0-.053-.026L89.615.028a.585.585,0,0,0-.354,0L76.394,4.122a.585.585,0,0,0-.411.555V18.712a.585.585,0,0,0,.409.557l12.866,4.094a.585.585,0,0,0,.354,0l12.866-4.094a.585.585,0,0,0,.406-.557V4.677A.582.582,0,0,0,102.86,4.52ZM89.434,1.2l10.936,3.48-2.262.72L87.173,1.916ZM85.243,2.53,96.179,6.01l-2.262.72L82.982,3.25Zm16.472,15.754-11.7,3.722V19.882a.585.585,0,0,0-1.17,0v2.124l-11.7-3.721V5.1l3.9-1.24,10.936,3.48-2.554.812L79.667,5.05a.585.585,0,0,0-.354,1.115L88.849,9.2v8.345a.585.585,0,1,0,1.17,0V9.2l3.314-1.053v3.88a.585.585,0,0,0,.585.585.6.6,0,0,0,.175-.027l1.364-.435a.585.585,0,0,0-.354-1.115l-.6.192V7.774l3.021-.961v3.45l-.664.211a.585.585,0,0,0,.175,1.142.569.569,0,0,0,.175-.027l1.073-.341a.585.585,0,0,0,.409-.557V6.438l3.025-.961Z" transform="translate(-75.983 0)" fill="#0d3548"/>
      </g>
    </g>
    <g id="Group_41354" data-name="Group 41354" transform="translate(6.433 14.618)">
      <g id="Group_41353" data-name="Group 41353">
        <path id="Path_59030" data-name="Path 59030" d="M108.568,199.968a.585.585,0,0,0-.585.585v1.754a.585.585,0,0,0,1.17,0v-1.754A.585.585,0,0,0,108.568,199.968Z" transform="translate(-107.983 -199.968)" fill="#0d3548"/>
      </g>
    </g>
    <g id="Group_41356" data-name="Group 41356" transform="translate(8.773 15.203)">
      <g id="Group_41355" data-name="Group 41355" transform="translate(0)">
        <path id="Path_59031" data-name="Path 59031" d="M140.568,207.968a.585.585,0,0,0-.585.585v1.754a.585.585,0,0,0,1.17,0v-1.754A.585.585,0,0,0,140.568,207.968Z" transform="translate(-139.983 -207.968)" fill="#0d3548"/>
      </g>
    </g>
  </g>
</svg>
