<svg id="Group_41477" data-name="Group 41477" xmlns="http://www.w3.org/2000/svg" xmlns:xlink="http://www.w3.org/1999/xlink" width="31.561" height="32.774" viewBox="0 0 31.561 32.774">
  <defs>
    <clipPath id="clip-path">
      <rect id="Rectangle_3859" data-name="Rectangle 3859" width="31.561" height="32.774" fill="#0d3548"/>
    </clipPath>
  </defs>
  <g id="Group_41358" data-name="Group 41358" clip-path="url(#clip-path)">
    <path id="Path_59047" data-name="Path 59047" d="M4.346,32.774H27.215a4.349,4.349,0,0,0,4.346-4.346V6.773a4.349,4.349,0,0,0-4.346-4.346H25.491V1.214a1.214,1.214,0,0,0-2.428,0V2.428H8.5V1.214a1.214,1.214,0,0,0-2.428,0V2.428H4.346A4.349,4.349,0,0,0,0,6.773V28.429a4.349,4.349,0,0,0,4.346,4.346ZM1.98,6.325A1.922,1.922,0,0,1,3.9,4.407H6.069V5.621a1.214,1.214,0,0,0,2.428,0V4.407H23.063V5.621a1.214,1.214,0,0,0,2.428,0V4.407h2.236a1.922,1.922,0,0,1,1.918,1.918V28.877a1.922,1.922,0,0,1-1.918,1.918H3.9A1.922,1.922,0,0,1,1.98,28.877Z" fill="#0d3548"/>
    <path id="Path_59048" data-name="Path 59048" d="M115.3,170.667a1.517,1.517,0,1,1-1.517,1.517,1.517,1.517,0,0,1,1.517-1.517" transform="translate(-106.496 -159.742)" fill="#0d3548"/>
    <path id="Path_59049" data-name="Path 59049" d="M219.592,170.667a1.517,1.517,0,1,1-1.517,1.517,1.517,1.517,0,0,1,1.517-1.517" transform="translate(-204.115 -159.742)" fill="#0d3548"/>
    <path id="Path_59050" data-name="Path 59050" d="M323.888,170.667a1.517,1.517,0,1,1-1.517,1.517,1.517,1.517,0,0,1,1.517-1.517" transform="translate(-301.735 -159.742)" fill="#0d3548"/>
    <path id="Path_59051" data-name="Path 59051" d="M115.3,265.481A1.517,1.517,0,1,1,113.779,267a1.517,1.517,0,0,1,1.517-1.517" transform="translate(-106.496 -248.487)" fill="#0d3548"/>
    <path id="Path_59052" data-name="Path 59052" d="M219.592,265.481A1.517,1.517,0,1,1,218.075,267a1.517,1.517,0,0,1,1.517-1.517" transform="translate(-204.115 -248.487)" fill="#0d3548"/>
    <path id="Path_59053" data-name="Path 59053" d="M323.888,265.481A1.517,1.517,0,1,1,322.371,267a1.517,1.517,0,0,1,1.517-1.517" transform="translate(-301.735 -248.487)" fill="#0d3548"/>
    <path id="Path_59054" data-name="Path 59054" d="M115.3,360.3a1.517,1.517,0,1,1-1.517,1.517A1.517,1.517,0,0,1,115.3,360.3" transform="translate(-106.496 -337.233)" fill="#0d3548"/>
    <path id="Path_59055" data-name="Path 59055" d="M219.592,360.3a1.517,1.517,0,1,1-1.517,1.517,1.517,1.517,0,0,1,1.517-1.517" transform="translate(-204.115 -337.233)" fill="#0d3548"/>
    <path id="Path_59056" data-name="Path 59056" d="M323.888,360.3a1.517,1.517,0,1,1-1.517,1.517,1.517,1.517,0,0,1,1.517-1.517" transform="translate(-301.735 -337.233)" fill="#0d3548"/>
  </g>
</svg>
