<svg id="Group_41478" data-name="Group 41478" xmlns="http://www.w3.org/2000/svg" xmlns:xlink="http://www.w3.org/1999/xlink" width="33.401" height="31.434" viewBox="0 0 33.401 31.434">
  <defs>
    <clipPath id="clip-path">
      <rect id="Rectangle_3860" data-name="Rectangle 3860" width="33.401" height="31.434" fill="#0d3548"/>
    </clipPath>
  </defs>
  <g id="Group_41360" data-name="Group 41360" clip-path="url(#clip-path)">
    <path id="Path_59057" data-name="Path 59057" d="M62.688,308.283A.689.689,0,0,0,63.4,309h9.9a.712.712,0,0,0,0-1.424H63.4a.689.689,0,0,0-.712.712" transform="translate(-58.63 -287.659)" fill="#0d3548"/>
    <path id="Path_59058" data-name="Path 59058" d="M62.688,381.769a.689.689,0,0,0,.712.712H79.575a.712.712,0,1,0,0-1.424H63.4a.689.689,0,0,0-.712.712" transform="translate(-58.63 -356.387)" fill="#0d3548"/>
    <path id="Path_59059" data-name="Path 59059" d="M73.595,160.9H63.4a.712.712,0,0,0,0,1.424H73.595a.67.67,0,0,0,.524-.227.738.738,0,0,0,.174-.485.683.683,0,0,0-.7-.712" transform="translate(-58.63 -150.482)" fill="#0d3548"/>
    <path id="Path_59060" data-name="Path 59060" d="M63.4,235.809h7.612a.712.712,0,0,0,0-1.424H63.4a.712.712,0,0,0,0,1.424" transform="translate(-58.63 -219.211)" fill="#0d3548"/>
    <path id="Path_59061" data-name="Path 59061" d="M77.109,87.414H63.4a.712.712,0,0,0,0,1.424H77.109a.712.712,0,0,0,0-1.424" transform="translate(-58.63 -81.755)" fill="#0d3548"/>
    <path id="Path_59062" data-name="Path 59062" d="M32.552,1.1,32.281.823a2.852,2.852,0,0,0-4.029.02l-2.6,2.636A3.706,3.706,0,0,0,22.033.164H3.741A3.736,3.736,0,0,0,0,3.886V27.693a3.746,3.746,0,0,0,3.741,3.741H21.956A3.746,3.746,0,0,0,25.7,27.693v-15.6l5.38-5.457,1.495-1.514A2.837,2.837,0,0,0,32.552,1.1M24.273,4.9l-8.448,8.564-.023.023-1.409,4.832a.744.744,0,0,0,.136.642.7.7,0,0,0,.553.276H15.1l4.97-1.5.031-.01,4.171-4.189V27.693a2.32,2.32,0,0,1-2.317,2.317H3.741a2.32,2.32,0,0,1-2.317-2.317V3.886a2.31,2.31,0,0,1,2.317-2.3H21.956a2.31,2.31,0,0,1,2.317,2.3Zm-8.147,12.56.651-2.262,1.611,1.579Zm1.313-3.614,9.838-9.972,2.3,2.265-9.857,9.971ZM31.573,4.124l-1,1-2.3-2.265,1-1a1.3,1.3,0,0,1,.927-.44h.007a2.064,2.064,0,0,1,1.348.693,1.423,1.423,0,0,1,.019,2.011" transform="translate(0 0)" fill="#0d3548"/>
    <path id="Path_59063" data-name="Path 59063" d="M335.918,86.7a.769.769,0,0,0-.537-.534.686.686,0,0,0-.674.194L329.6,91.548a.71.71,0,0,0,.5,1.211.728.728,0,0,0,.519-.213l5.106-5.184a.663.663,0,0,0,.192-.659" transform="translate(-308.067 -80.569)" fill="#0d3548"/>
    <path id="Path_59064" data-name="Path 59064" d="M296.856,186.259l-.912.931a.706.706,0,0,0,.5,1.211.687.687,0,0,0,.5-.213l.934-.934a.713.713,0,0,0-1.021-1" transform="translate(-276.585 -173.998)" fill="#0d3548"/>
  </g>
</svg>
