<svg xmlns="http://www.w3.org/2000/svg" width="31.665" height="35.712" viewBox="0 0 31.665 35.712">
  <g id="global" transform="translate(-38.352 -9.25)">
    <path id="Path_59035" data-name="Path 59035" d="M227.567,68.214a17.186,17.186,0,0,1,14.884,25.554" transform="translate(-175.36 -54.166)" fill="none" stroke="#0d3548" stroke-linecap="round" stroke-linejoin="round" stroke-miterlimit="10" stroke-width="1.5"/>
    <path id="Path_59036" data-name="Path 59036" d="M52.208,154.323h-.114a12.987,12.987,0,1,1,11.332-6.635" transform="translate(0 -110.111)" fill="none" stroke="#0d3548" stroke-linecap="round" stroke-linejoin="round" stroke-miterlimit="10" stroke-width="1.5"/>
    <line id="Line_44" data-name="Line 44" x1="2.58" transform="translate(62.027 31.221)" fill="none" stroke="#0d3548" stroke-linecap="round" stroke-linejoin="round" stroke-miterlimit="10" stroke-width="1.5"/>
    <line id="Line_45" data-name="Line 45" x1="14.135" transform="translate(39.667 31.221)" fill="none" stroke="#0d3548" stroke-linecap="round" stroke-linejoin="round" stroke-miterlimit="10" stroke-width="1.5"/>
    <path id="Path_59037" data-name="Path 59037" d="M149.316,163.1a37.794,37.794,0,0,1,0-24.566" transform="translate(-100.641 -119.594)" fill="none" stroke="#0d3548" stroke-linecap="round" stroke-linejoin="round" stroke-miterlimit="10" stroke-width="1.5"/>
    <path id="Path_59038" data-name="Path 59038" d="M275.932,138.53a36.323,36.323,0,0,1,1.894,8.8" transform="translate(-220.361 -119.592)" fill="none" stroke="#0d3548" stroke-linecap="round" stroke-linejoin="round" stroke-miterlimit="10" stroke-width="1.5"/>
    <path id="Path_59039" data-name="Path 59039" d="M270.932,207.619a29.671,29.671,0,0,0,7.264-1.69" transform="translate(-215.709 -182.305)" fill="none" stroke="#0d3548" stroke-linecap="round" stroke-linejoin="round" stroke-miterlimit="10" stroke-width="1.5"/>
    <path id="Path_59040" data-name="Path 59040" d="M76.667,205.67a29.655,29.655,0,0,0,7.264,1.7" transform="translate(-34.953 -182.064)" fill="none" stroke="#0d3548" stroke-linecap="round" stroke-linejoin="round" stroke-miterlimit="10" stroke-width="1.5"/>
    <path id="Path_59041" data-name="Path 59041" d="M76.672,399.678A29.793,29.793,0,0,1,87.08,397.81q.3,0,.6.006" transform="translate(-34.957 -360.843)" fill="none" stroke="#0d3548" stroke-linecap="round" stroke-linejoin="round" stroke-miterlimit="10" stroke-width="1.5"/>
    <path id="Path_59042" data-name="Path 59042" d="M70.935,20.445l-3.015-5.223h0A3.482,3.482,0,0,1,70.935,10h0a3.482,3.482,0,0,1,3.015,5.223h0Z" transform="translate(-26.375)" fill="none" stroke="#0d3548" stroke-linecap="round" stroke-linejoin="round" stroke-miterlimit="10" stroke-width="1.5"/>
    <line id="Line_46" data-name="Line 46" transform="translate(44.56 13.105)" fill="none" stroke="#0d3548" stroke-linecap="round" stroke-linejoin="round" stroke-miterlimit="10" stroke-width="1.5"/>
    <path id="Path_59043" data-name="Path 59043" d="M238.175,386.333H227.567v-5.344a3.3,3.3,0,0,1,3.3-3.3h4.847a3.3,3.3,0,0,1,3.3,3.3v4.5A.84.84,0,0,1,238.175,386.333Z" transform="translate(-175.36 -342.121)" fill="none" stroke="#0d3548" stroke-linecap="round" stroke-linejoin="round" stroke-miterlimit="10" stroke-width="1.5"/>
    <circle id="Ellipse_130" data-name="Ellipse 130" cx="3.895" cy="3.895" r="3.895" transform="translate(54.036 27.778)" fill="none" stroke="#0d3548" stroke-linecap="round" stroke-linejoin="round" stroke-miterlimit="10" stroke-width="1.5"/>
    <path id="Path_59044" data-name="Path 59044" d="M215.978,50.806,214.913,49.4l1.065-1.406" transform="translate(-163.586 -35.352)" fill="none" stroke="#0d3548" stroke-linecap="round" stroke-linejoin="round" stroke-miterlimit="10" stroke-width="1.5"/>
    <line id="Line_47" data-name="Line 47" transform="translate(52.1 25.474)" fill="none" stroke="#0d3548" stroke-linecap="round" stroke-linejoin="round" stroke-miterlimit="10" stroke-width="1.5"/>
  </g>
</svg>
