<svg xmlns="http://www.w3.org/2000/svg" width="21" height="21" viewBox="0 0 21 21">
  <g id="layer1" transform="translate(-0.529 -280.595)">
    <path id="circle13442" d="M5.078,280.595a4.555,4.555,0,0,0-4.549,4.55c0,1.731,1.1,3.514,2.172,4.9a20.983,20.983,0,0,0,2.142,2.365.35.35,0,0,0,.473,0,21.126,21.126,0,0,0,2.139-2.365c1.07-1.382,2.173-3.165,2.173-4.9a4.555,4.555,0,0,0-4.55-4.55Zm0,.7a3.844,3.844,0,0,1,3.85,3.849A8.388,8.388,0,0,1,6.9,289.612a16.158,16.158,0,0,1-1.822,2.015,16.1,16.1,0,0,1-1.824-2.015,8.393,8.393,0,0,1-2.028-4.467A3.844,3.844,0,0,1,5.078,281.3Zm0,1.4a2.451,2.451,0,1,0,2.449,2.449A2.454,2.454,0,0,0,5.078,282.7Zm0,.7a1.75,1.75,0,1,1-1.749,1.749A1.745,1.745,0,0,1,5.078,283.4Zm5.6,3.5h3.5a.342.342,0,0,1,.351.349v9.1a.35.35,0,1,0,.7,0V289.7h4.2c.239,0,.306.244.367.449l1.034,3.452v3.8h-1.44a2.436,2.436,0,0,0-3.419,0H9.611a.35.35,0,1,0,0,.7H15.47a2.428,2.428,0,0,0-.24,1.049,2.448,2.448,0,0,0,4.87.351h1.08a.351.351,0,0,0,.349-.351v-5.6a.336.336,0,0,0-.016-.1l-1.08-3.612A1.033,1.033,0,0,0,19.428,289h-4.2v-1.751a1.056,1.056,0,0,0-1.051-1.049H10.662a.351.351,0,1,0,.018.7Zm5.6,3.5a.35.35,0,0,0-.349.349v2.1a.35.35,0,0,0,.349.349h.9l.6.6a.35.35,0,0,0,.245.1h1.687a.35.35,0,0,0,.336-.449l-.84-2.8a.35.35,0,0,0-.336-.251Zm-14.006.347a.35.35,0,0,0-.344.353v8.051a.35.35,0,0,0,.349.351h1.78a2.446,2.446,0,0,0,4.842,0h5.279a.35.35,0,0,0,0-.7H8.9a2.443,2.443,0,0,0-4.132-1.4H2.629v-6.3a.35.35,0,0,0-.356-.353Zm14.357.353h1.984l.63,2.1H18.175l-.6-.6a.35.35,0,0,0-.245-.1h-.7Zm-.351,3.5a.35.35,0,0,0,0,.7h.7a.35.35,0,0,0,0-.7Zm-9.8,2.8a1.749,1.749,0,1,1-1.749,1.749A1.743,1.743,0,0,1,6.479,297.4Zm11.2,0a1.749,1.749,0,1,1-1.749,1.749A1.744,1.744,0,0,1,17.679,297.4Zm-15.05.7H4.27a2.422,2.422,0,0,0-.213.7H2.629Zm3.85,0a1.05,1.05,0,1,0,1.049,1.049A1.054,1.054,0,0,0,6.479,298.1Zm11.2,0a1.05,1.05,0,1,0,1.049,1.049A1.054,1.054,0,0,0,17.679,298.1Zm2.209,0h.94v.7H20.1A2.42,2.42,0,0,0,19.889,298.1Zm-13.409.7a.35.35,0,1,1-.349.349A.345.345,0,0,1,6.479,298.8Zm11.2,0a.35.35,0,1,1-.349.349A.343.343,0,0,1,17.679,298.8Z" fill="#ed1c24"/>
  </g>
</svg>
