<svg xmlns="http://www.w3.org/2000/svg" width="86.001" height="69.888" viewBox="0 0 86.001 69.888">
  <g id="map" transform="translate(0 -5.995)">
    <g id="Group_41489" data-name="Group 41489" transform="translate(0 20.789)">
      <path id="Path_60351" data-name="Path 60351" d="M63.687,25.724a1.344,1.344,0,0,1-1.274-.919L61.07,20.774a1.343,1.343,0,0,1,2.548-.85l1.344,4.031a1.345,1.345,0,0,1-1.274,1.77Z" transform="translate(20.969 -16.317)" fill="#ed1c24"/>
      <path id="Path_60352" data-name="Path 60352" d="M63.031,21.692H60.344a1.344,1.344,0,0,1,0-2.688h2.688a1.344,1.344,0,1,1,0,2.688Z" transform="translate(20.282 -16.317)" fill="#ed1c24"/>
      <path id="Path_60353" data-name="Path 60353" d="M58.342,27.068a1.344,1.344,0,0,1-1.2-1.945l2.688-5.375a1.344,1.344,0,0,1,2.4,1.2l-2.688,5.375a1.344,1.344,0,0,1-1.2.743Z" transform="translate(19.594 -16.317)" fill="#ed1c24"/>
      <path id="Path_60354" data-name="Path 60354" d="M59.719,25.692H54.344a1.344,1.344,0,1,1,0-2.688h5.375a1.344,1.344,0,1,1,0,2.688Z" transform="translate(18.219 -14.942)" fill="#ed1c24"/>
      <path id="Path_60355" data-name="Path 60355" d="M54.344,29.724A1.343,1.343,0,0,1,53,28.38V24.349a1.344,1.344,0,1,1,2.688,0V28.38a1.343,1.343,0,0,1-1.344,1.344Z" transform="translate(18.219 -14.942)" fill="#ed1c24"/>
      <path id="Path_60356" data-name="Path 60356" d="M55.375,28.692H51.344a1.344,1.344,0,0,1,0-2.688h4.031a1.344,1.344,0,0,1,0,2.688Z" transform="translate(17.188 -13.911)" fill="#ed1c24"/>
      <path id="Path_60357" data-name="Path 60357" d="M51.344,32.724A1.343,1.343,0,0,1,50,31.38V27.349a1.344,1.344,0,1,1,2.688,0V31.38a1.343,1.343,0,0,1-1.344,1.344Z" transform="translate(17.188 -13.911)" fill="#ed1c24"/>
      <path id="Path_60358" data-name="Path 60358" d="M48.345,34.38a1.344,1.344,0,0,1-.747-2.462l4.031-2.688a1.344,1.344,0,1,1,1.491,2.236l-4.031,2.687a1.338,1.338,0,0,1-.744.226Z" transform="translate(16.157 -12.879)" fill="#ed1c24"/>
      <path id="Path_60359" data-name="Path 60359" d="M48.688,33.692H47.344a1.344,1.344,0,1,1,0-2.688h1.344a1.344,1.344,0,0,1,0,2.688Z" transform="translate(15.813 -12.192)" fill="#ed1c24"/>
      <path id="Path_60360" data-name="Path 60360" d="M47.344,35.411A1.343,1.343,0,0,1,46,34.067V27.349a1.344,1.344,0,1,1,2.688,0v6.719a1.343,1.343,0,0,1-1.344,1.344Z" transform="translate(15.813 -13.911)" fill="#ed1c24"/>
      <path id="Path_60361" data-name="Path 60361" d="M48.375,29.724a1.339,1.339,0,0,1-.95-.394L43.394,25.3a1.344,1.344,0,1,1,1.9-1.9l4.031,4.031a1.344,1.344,0,0,1-.95,2.294Z" transform="translate(14.782 -14.942)" fill="#ed1c24"/>
      <path id="Path_60362" data-name="Path 60362" d="M44.955,25.692h-2.39a1.344,1.344,0,0,1,0-2.688h2.39a1.344,1.344,0,0,1,0,2.688Z" transform="translate(14.171 -14.942)" fill="#ed1c24"/>
      <path id="Path_60363" data-name="Path 60363" d="M23.814,21.826a1.393,1.393,0,0,1-.164-.01L6.181,19.683a1.344,1.344,0,1,1,.325-2.668l17.469,2.133a1.344,1.344,0,0,1-.161,2.678Z" transform="translate(1.719 -17.004)" fill="#ed1c24"/>
      <path id="Path_60364" data-name="Path 60364" d="M5.344,21.036a1.344,1.344,0,0,1-.95-2.294L5.737,17.4a1.344,1.344,0,1,1,1.9,1.9L6.294,20.642A1.339,1.339,0,0,1,5.344,21.036Z" transform="translate(1.376 -17.004)" fill="#ed1c24"/>
      <path id="Path_60365" data-name="Path 60365" d="M6.03,21.036a1.336,1.336,0,0,1-.6-.142L2.743,19.551a1.344,1.344,0,1,1,1.2-2.4L6.632,18.49a1.344,1.344,0,0,1-.6,2.546Z" transform="translate(0.688 -17.005)" fill="#ed1c24"/>
      <path id="Path_60366" data-name="Path 60366" d="M3.344,25.067A1.343,1.343,0,0,1,2,23.724V18.349a1.344,1.344,0,1,1,2.688,0v5.375a1.343,1.343,0,0,1-1.344,1.344Z" transform="translate(0.688 -17.004)" fill="#ed1c24"/>
      <path id="Path_60367" data-name="Path 60367" d="M1.342,29.068a1.344,1.344,0,0,1-1.2-1.945l2.688-5.375a1.344,1.344,0,0,1,2.4,1.2L2.546,28.325a1.344,1.344,0,0,1-1.2.743Z" transform="translate(0 -15.63)" fill="#ed1c24"/>
      <path id="Path_60368" data-name="Path 60368" d="M1.344,39.786A1.343,1.343,0,0,1,0,38.442V26.349a1.344,1.344,0,0,1,2.688,0V38.442a1.343,1.343,0,0,1-1.344,1.344Z" transform="translate(0 -14.254)" fill="#ed1c24"/>
      <path id="Path_60369" data-name="Path 60369" d="M6.72,48.831a1.344,1.344,0,0,1-1.232-.8L.113,35.759a1.344,1.344,0,1,1,2.462-1.079L7.95,46.948a1.344,1.344,0,0,1-.692,1.77,1.329,1.329,0,0,1-.538.113Z" transform="translate(0 -11.205)" fill="#ed1c24"/>
      <path id="Path_60370" data-name="Path 60370" d="M20.125,51.067a1.346,1.346,0,0,1-.459-.081L4.884,45.611A1.343,1.343,0,1,1,5.8,43.086l14.781,5.375a1.344,1.344,0,0,1-.459,2.606Z" transform="translate(1.375 -8.067)" fill="#ed1c24"/>
      <path id="Path_60371" data-name="Path 60371" d="M16.344,50.036a1.344,1.344,0,0,1-.95-2.294L16.737,46.4a1.344,1.344,0,1,1,1.9,1.9l-1.344,1.344a1.339,1.339,0,0,1-.95.394Z" transform="translate(5.157 -7.036)" fill="#ed1c24"/>
      <path id="Path_60372" data-name="Path 60372" d="M20.031,48.692H17.344a1.344,1.344,0,1,1,0-2.688h2.688a1.344,1.344,0,1,1,0,2.688Z" transform="translate(5.501 -7.036)" fill="#ed1c24"/>
      <path id="Path_60373" data-name="Path 60373" d="M23.376,55.411a1.342,1.342,0,0,1-1.153-.652L18.192,48.04a1.344,1.344,0,1,1,2.3-1.383l4.031,6.719a1.344,1.344,0,0,1-1.151,2.035Z" transform="translate(6.188 -7.036)" fill="#ed1c24"/>
      <path id="Path_60374" data-name="Path 60374" d="M23.688,53.692H22.344a1.344,1.344,0,0,1,0-2.688h1.344a1.344,1.344,0,1,1,0,2.688Z" transform="translate(7.219 -5.317)" fill="#ed1c24"/>
      <path id="Path_60375" data-name="Path 60375" d="M23.344,54.036a1.344,1.344,0,0,1-.95-2.294L23.737,50.4a1.344,1.344,0,1,1,1.9,1.9l-1.344,1.344a1.339,1.339,0,0,1-.95.394Z" transform="translate(7.563 -5.661)" fill="#ed1c24"/>
      <path id="Path_60376" data-name="Path 60376" d="M27.031,52.692H24.344a1.344,1.344,0,1,1,0-2.688h2.688a1.344,1.344,0,1,1,0,2.688Z" transform="translate(7.907 -5.661)" fill="#ed1c24"/>
      <path id="Path_60377" data-name="Path 60377" d="M30.376,60.755a1.344,1.344,0,0,1-1.2-.743L25.142,51.95a1.344,1.344,0,0,1,2.4-1.2l4.031,8.063a1.344,1.344,0,0,1-1.2,1.945Z" transform="translate(8.594 -5.661)" fill="#ed1c24"/>
      <path id="Path_60378" data-name="Path 60378" d="M32.031,58.692H29.344a1.344,1.344,0,1,1,0-2.688h2.688a1.344,1.344,0,1,1,0,2.688Z" transform="translate(9.626 -3.598)" fill="#ed1c24"/>
      <path id="Path_60379" data-name="Path 60379" d="M31.345,56.38a1.344,1.344,0,0,1-.6-2.546l5.375-2.688a1.344,1.344,0,1,1,1.2,2.4l-5.375,2.688a1.345,1.345,0,0,1-.6.142Z" transform="translate(10.313 -5.317)" fill="#ed1c24"/>
      <path id="Path_60380" data-name="Path 60380" d="M43.406,53.692H35.344a1.344,1.344,0,1,1,0-2.688h8.063a1.344,1.344,0,1,1,0,2.688Z" transform="translate(11.688 -5.317)" fill="#ed1c24"/>
      <path id="Path_60381" data-name="Path 60381" d="M31.344,59.724A1.343,1.343,0,0,1,30,58.38V54.349a1.344,1.344,0,0,1,2.688,0V58.38a1.343,1.343,0,0,1-1.344,1.344Z" transform="translate(10.313 -4.629)" fill="#ed1c24"/>
      <path id="Path_60382" data-name="Path 60382" d="M41.342,54.38a1.344,1.344,0,0,1-1.2-1.945l1.344-2.688a1.344,1.344,0,1,1,2.4,1.2l-1.344,2.688a1.344,1.344,0,0,1-1.2.743Z" transform="translate(13.751 -6.004)" fill="#ed1c24"/>
      <path id="Path_60383" data-name="Path 60383" d="M51.75,51.692H42.344a1.344,1.344,0,1,1,0-2.688H51.75a1.344,1.344,0,1,1,0,2.688Z" transform="translate(14.094 -6.004)" fill="#ed1c24"/>
      <path id="Path_60384" data-name="Path 60384" d="M52.031,59.755a1.343,1.343,0,0,1-1.274-.919L48.07,50.774a1.343,1.343,0,1,1,2.548-.85l2.688,8.063a1.345,1.345,0,0,1-1.274,1.769Z" transform="translate(16.501 -6.004)" fill="#ed1c24"/>
      <path id="Path_60385" data-name="Path 60385" d="M56.719,57.692H51.344a1.344,1.344,0,0,1,0-2.688h5.375a1.344,1.344,0,0,1,0,2.688Z" transform="translate(17.188 -3.942)" fill="#ed1c24"/>
      <path id="Path_60386" data-name="Path 60386" d="M56.375,60.443a1.344,1.344,0,0,1-1.259-.872l-4.031-10.75a1.344,1.344,0,1,1,2.517-.945l4.031,10.75a1.343,1.343,0,0,1-1.258,1.816Z" transform="translate(17.532 -6.692)" fill="#ed1c24"/>
      <path id="Path_60387" data-name="Path 60387" d="M52.344,49.411a1.344,1.344,0,0,1-.95-2.294L58.112,40.4a1.344,1.344,0,1,1,1.9,1.9l-6.719,6.719a1.339,1.339,0,0,1-.95.394Z" transform="translate(17.532 -9.098)" fill="#ed1c24"/>
      <path id="Path_60388" data-name="Path 60388" d="M52.344,50.38A1.343,1.343,0,0,1,51,49.036V46.349a1.344,1.344,0,1,1,2.688,0v2.688a1.343,1.343,0,0,1-1.344,1.344Z" transform="translate(17.532 -7.379)" fill="#ed1c24"/>
      <path id="Path_60389" data-name="Path 60389" d="M57.345,45.786a1.427,1.427,0,0,1-.15-.008,1.345,1.345,0,0,1-1.188-1.484L57.352,32.2a1.344,1.344,0,0,1,2.672.3L58.68,44.591a1.344,1.344,0,0,1-1.335,1.2Z" transform="translate(19.251 -12.192)" fill="#ed1c24"/>
      <path id="Path_60390" data-name="Path 60390" d="M58.342,32.036a1.344,1.344,0,0,1-.324-2.647l5.375-1.344a1.344,1.344,0,1,1,.651,2.607L58.669,32A1.333,1.333,0,0,1,58.342,32.036Z" transform="translate(19.594 -13.223)" fill="#ed1c24"/>
      <path id="Path_60391" data-name="Path 60391" d="M58.344,34.38A1.343,1.343,0,0,1,57,33.036V30.349a1.344,1.344,0,1,1,2.688,0v2.688a1.343,1.343,0,0,1-1.344,1.344Z" transform="translate(19.594 -12.879)" fill="#ed1c24"/>
      <path id="Path_60392" data-name="Path 60392" d="M62.344,31.724A1.343,1.343,0,0,1,61,30.38V26.349a1.344,1.344,0,1,1,2.688,0V30.38a1.343,1.343,0,0,1-1.344,1.344Z" transform="translate(20.969 -14.254)" fill="#ed1c24"/>
      <path id="Path_60393" data-name="Path 60393" d="M62.344,28.724a1.345,1.345,0,0,1-1.274-1.77l1.344-4.031a1.343,1.343,0,1,1,2.548.85l-1.344,4.031a1.344,1.344,0,0,1-1.274.919Z" transform="translate(20.97 -15.286)" fill="#ed1c24"/>
    </g>
    <g id="Group_41490" data-name="Group 41490" transform="translate(24.188 5.995)">
      <path id="Path_60394" data-name="Path 60394" d="M35.469,53.026a1.344,1.344,0,0,1-.861-.311C33.931,52.15,18,38.7,18,23.464a17.469,17.469,0,1,1,34.938,0c0,15.235-15.931,28.686-16.608,29.252a1.344,1.344,0,0,1-.861.311Zm0-44.344A14.8,14.8,0,0,0,20.688,23.464c0,12.058,11.5,23.429,14.781,26.424,3.277-3,14.781-14.383,14.781-26.424A14.8,14.8,0,0,0,35.469,8.683Z" transform="translate(-18 -5.995)" fill="#ed1c24"/>
      <path id="Path_60395" data-name="Path 60395" d="M33.406,30.808A9.406,9.406,0,1,1,42.813,21.4,9.406,9.406,0,0,1,33.406,30.808Zm0-16.125A6.719,6.719,0,1,0,40.125,21.4,6.719,6.719,0,0,0,33.406,14.683Z" transform="translate(-15.937 -3.933)" fill="#ed1c24"/>
    </g>
  </g>
</svg>
