<svg xmlns="http://www.w3.org/2000/svg" width="81.954" height="73.325" viewBox="0 0 81.954 73.325">
  <defs>
    <style>
      .cls-1 {
        fill: #ed1c24;
      }
    </style>
  </defs>
  <g id="europe" transform="translate(-5.239 -11.441)">
    <path id="Path_59015" data-name="Path 59015" class="cls-1" d="M84.654,59.629l-5.005-2.283a.563.563,0,0,1-.246-.808l1.969-3.178a6.138,6.138,0,0,0,.256-5.973l-1.7-3.348a.558.558,0,0,1,.041-.577l3.177-4.546a3.005,3.005,0,0,0-1.555-4.585l-4.957-1.575a.558.558,0,0,1-.393-.536V30.74a2.986,2.986,0,0,0-1.412-2.547L73.8,27.547a.558.558,0,0,1-.213-.243l-3.4-7.427a.574.574,0,0,1-.051-.217l-.1-3.038a5.26,5.26,0,0,0-4.646-5.071l-.722-.088a3,3,0,0,0-3.231,2.088L57.177,27.228A5.719,5.719,0,0,1,56.1,29.21l-2.144,2.56a.563.563,0,0,1-.991-.3l-.673-6.212a4.68,4.68,0,0,0-3.054-3.911l-1.154-.425a4.626,4.626,0,0,0-5.789,2.415L37.485,33.894a.566.566,0,0,1-.134.183L33.5,37.584a7.964,7.964,0,0,0-2.6,6.406l.13,2.092a3,3,0,0,0,3.478,2.779l5.862-.948a2.988,2.988,0,0,0,2.293-1.806l2.881-6.872a.871.871,0,0,1,1.346-.349l.8.631a.565.565,0,0,1,.209.51l-.767,6.2a.563.563,0,0,1-.193.359l-7.759,6.68a.565.565,0,0,1-.279.129l-8.284,1.327a14.856,14.856,0,0,0-6,2.387L20.1,60.194a5.424,5.424,0,0,0-2.288,3.61l-.392,2.441a.563.563,0,0,1-.707.453h0l-3.429-.961a4.612,4.612,0,0,0-5.216,2.1l-2,3.4a5.929,5.929,0,0,0,.743,7.058l1.076,1.171a3,3,0,0,0,1.919.958l6.214.609a2.994,2.994,0,0,0,2.092-.587l6.1-4.572a3.018,3.018,0,0,0,1.092-1.6l.507-1.818a.564.564,0,0,1,.737-.378L29.067,73a2.991,2.991,0,0,0,2.244-.07.562.562,0,0,1,.763.349l.949,3a3.005,3.005,0,0,0,1.592,1.818l2.3,1.075a3,3,0,0,0,3.939-1.338l1.793-3.457a.563.563,0,0,1,.767-.234l1.534.837a.561.561,0,0,1,.263.679l-.1.287a5.977,5.977,0,0,0,.773,5.387l1.526,2.154a3,3,0,0,0,2.139,1.255,2.931,2.931,0,0,0,.312.017,3,3,0,0,0,2.039-.8l3.3-3.047a3.018,3.018,0,0,0,.934-1.784L56.721,75a.561.561,0,0,1,.38-.455l1.235-.411a3,3,0,0,0,2.055-2.85V65.307a.873.873,0,0,1,.872-.872h5.756a.565.565,0,0,1,.412.179l2.7,2.9a3.006,3.006,0,0,0,2.639.923l11.852-1.756a3,3,0,0,0,2.553-2.7,4.357,4.357,0,0,0-2.521-4.353Zm.1,4.132a.558.558,0,0,1-.478.506L72.42,66.025a.564.564,0,0,1-.495-.173l-2.7-2.9a3.014,3.014,0,0,0-2.2-.956H61.27a3.317,3.317,0,0,0-3.313,3.313v5.964a.558.558,0,0,1-.386.534l-1.235.412a2.984,2.984,0,0,0-2.023,2.429l-.588,4.14a.571.571,0,0,1-.175.335l-3.3,3.046a.564.564,0,0,1-.842-.088l-1.525-2.155a3.533,3.533,0,0,1-.457-3.183l.1-.287a2.994,2.994,0,0,0-1.4-3.616L44.592,72a3.005,3.005,0,0,0-4.1,1.255l-1.8,3.454a.558.558,0,0,1-.738.25l-2.3-1.075a.558.558,0,0,1-.3-.34l-.945-3.005A3,3,0,0,0,30.334,70.7a.566.566,0,0,1-.422.013l-2.517-.92A3,3,0,0,0,23.467,71.8l-.508,1.818a.566.566,0,0,1-.2.3l-6.1,4.572a.575.575,0,0,1-.393.11l-6.214-.61a.558.558,0,0,1-.359-.179L8.617,76.644a3.5,3.5,0,0,1-.442-4.171l2-3.4a2.171,2.171,0,0,1,2.454-.988l3.429.961a3,3,0,0,0,3.776-2.418l.392-2.441a2.973,2.973,0,0,1,1.255-1.98l4.513-3.081A12.408,12.408,0,0,1,31,57.137l8.285-1.325a3.007,3.007,0,0,0,1.486-.689l7.759-6.681a3,3,0,0,0,1.022-1.91l.762-6.2A3.018,3.018,0,0,0,49.2,37.61l-.794-.631a3.313,3.313,0,0,0-5.112,1.314l-2.881,6.871a.564.564,0,0,1-.43.339l-5.862.948a.567.567,0,0,1-.441-.116.558.558,0,0,1-.209-.4l-.13-2.092a5.531,5.531,0,0,1,1.8-4.452L39,35.879a3.017,3.017,0,0,0,.71-.976l4.808-10.56a2.178,2.178,0,0,1,2.72-1.135l1.154.425a2.252,2.252,0,0,1,1.47,1.883l.673,6.212a3,3,0,0,0,5.29,1.6l2.144-2.561a8.151,8.151,0,0,0,1.54-2.823l4.262-13.675a.567.567,0,0,1,.6-.391l.723.088a2.831,2.831,0,0,1,2.5,2.73l.1,3.04a3,3,0,0,0,.271,1.148l3.4,7.427a2.99,2.99,0,0,0,1.14,1.3l1.032.645a.558.558,0,0,1,.264.477v1.482a2.993,2.993,0,0,0,2.1,2.864l4.956,1.571a.563.563,0,0,1,.291.859L77.97,42.057a3,3,0,0,0-.217,3.079l1.7,3.348a3.684,3.684,0,0,1-.153,3.584l-1.966,3.184a3,3,0,0,0,1.308,4.316l5,2.282a1.91,1.91,0,0,1,1.108,1.911Z" transform="translate(0)"/>
    <path id="Path_59016" data-name="Path 59016" class="cls-1" d="M14.86,66.523l.937.227a5.08,5.08,0,0,0,4.181-.822l6.443-4.661a5.092,5.092,0,0,0,2.07-3.543l.652-5.707a3.952,3.952,0,0,0-3.151-4.3l-2.378-.466A3.944,3.944,0,0,0,19.5,49.06l-2.2,3.617h0a2.645,2.645,0,0,1-1.445,1.143l-.25.081A5.056,5.056,0,0,0,12.1,58.449l-.233,4.025a3.931,3.931,0,0,0,3,4.048Zm-.329-7.932a2.629,2.629,0,0,1,1.827-2.364l.25-.082a5.085,5.085,0,0,0,2.779-2.2l2.2-3.616a1.5,1.5,0,0,1,1.56-.688l2.378.466a1.5,1.5,0,0,1,1.195,1.631l-.652,5.705a2.655,2.655,0,0,1-1.078,1.843l-6.443,4.66a2.638,2.638,0,0,1-2.173.428l-.937-.227A1.49,1.49,0,0,1,14.3,62.614Z" transform="translate(-2.002 -10.81)"/>
  </g>
</svg>
