<svg id="g17" xmlns="http://www.w3.org/2000/svg" xmlns:xlink="http://www.w3.org/1999/xlink" width="84.598" height="84.598" viewBox="0 0 84.598 84.598">
  <defs>
    <style>
      .cls-1 {
        clip-path: url(#clip-path);
      }

      .cls-2, .cls-3 {
        fill: none;
        stroke: #ed1c24;
        stroke-linecap: round;
        stroke-linejoin: round;
        stroke-width: 2px;
      }

      .cls-2 {
        stroke-miterlimit: 22.926;
      }

      .cls-3 {
        stroke-miterlimit: 2.613;
      }
    </style>
    <clipPath id="clip-path">
      <path id="path21" d="M0-682.665H84.6v84.6H0Z" transform="translate(0 682.665)"/>
    </clipPath>
  </defs>
  <g id="g19" class="cls-1">
    <g id="g25" transform="translate(1.652 9.253)">
      <path id="path27" class="cls-2" d="M-388.815-171.945c2.158-.22,2.443-3.266,4.672-3.854,3.542-.934,1.679-2.678,3.587-4.31a7.422,7.422,0,0,0,2.406-3.743c.47-1.836,2.389-1.362,3.184-2.5a6.089,6.089,0,0,1,2.8-2.759,4.48,4.48,0,0,0,1.863-3.378c0-.632,1.233-1.433,1.369-2.329.4-2.615,3.919-1.3,3.726.847a7.3,7.3,0,0,0,.006,3.257c.547,1.324-2.1,2.553-.467,3.374a.9.9,0,0,0,1.216.113c.324-.211,1.605.469,1.568,1.613-.005.169-.418,3.159-.443,4.53a32.221,32.221,0,0,0,.654,5.018c.2.86.317,2.08-.408,2.7-.2.172-1.48,1.257-1.593,1.368a2.2,2.2,0,0,1-3.881-1.175c-.441-1.94-2.432-2.1-3.694-1.048-.756.629-1.734,2.262-.83,3.6,1.059,1.572-.187,4.044-.114,4.9.226,2.646,2.509,2.248.939,4.1-.1.122-.3.924.727.924,2.564,0,3.383.965,3.459,2.2a3.57,3.57,0,0,1-2.71,3.332c-1.712.411-4.18-1.357-5.173-.353-.761.77,1.089,2.8-.25,4.077-.51.486-.519,2.989-1.1,4.907-.471,1.557-1.546,2.536-1.755,3.285-.948,3.395-2.491,2.2-2.279,6.8.076,1.642-.229,3.288-.289,4.918l-1.2,1.349-14.63-1.913m-14.746-1.929-14.632-1.914-16.623-22.056c.125-1.255.416-1.707-.189-2.792-1.064-1.863,3.051-4.916,4.406-1.063.283.806,2.609.482,2.036,2.555-.366,1.324.874,2,2.067,1.9,2.276-.189,1.946,2.7,4.173.83,3.048-2.561,4.51-2.017,6.663-1.905.447.023,1.265.214,1.935.214,1.758,0,2.311.841,3.868-.256,1.367-.963,3.02,1.248,4.363.97a5.6,5.6,0,0,1,2.323-.234c.732.147,1.385.782,2.2.875,1,.114,2.06-.435,2.814-.033,1.908,1.017,4.908-.2,7.038-1.855" transform="translate(443.813 196.266)"/>
    </g>
    <g id="g29" transform="translate(40.642 72.467)">
      <path id="path31" class="cls-3" d="M0,0H0"/>
    </g>
    <g id="g33" transform="translate(36.922 22.081)">
      <path id="path35" class="cls-2" d="M-70.086-176.568c-2.33,0-9.914-8.468-9.914-14.983a10.047,10.047,0,0,1,9.914-9.993,10.047,10.047,0,0,1,9.914,9.993C-60.172-185.036-67.756-176.568-70.086-176.568Z" transform="translate(80 201.544)"/>
    </g>
    <g id="g37" transform="translate(43.531 28.69)">
      <path id="path39" class="cls-2" d="M-23.362-46.724a3.311,3.311,0,0,0,3.3-3.3,3.311,3.311,0,0,0-3.3-3.3,3.311,3.311,0,0,0-3.3,3.3A3.311,3.311,0,0,0-23.362-46.724Z" transform="translate(26.667 53.333)"/>
    </g>
  </g>
</svg>
