<svg id="Front" xmlns="http://www.w3.org/2000/svg" xmlns:xlink="http://www.w3.org/1999/xlink" width="203.122" height="50.669" viewBox="0 0 203.122 50.669">
  <defs>
    <clipPath id="clip-path">
      <path id="Path_209" data-name="Path 209" d="M0,26.162H8.051L15.45,7.24A51.787,51.787,0,0,0,4.882,17.417,31.416,31.416,0,0,0,.022,26.162" transform="translate(0 -7.24)" fill="none"/>
    </clipPath>
    <linearGradient id="linear-gradient" x1="0.335" y1="11.326" x2="0.369" y2="11.326" gradientUnits="objectBoundingBox">
      <stop offset="0" stop-color="#9f1018"/>
      <stop offset="0.31" stop-color="#c31820"/>
      <stop offset="1" stop-color="#ed1c24"/>
    </linearGradient>
    <clipPath id="clip-path-2">
      <path id="Path_210" data-name="Path 210" d="M66.414,6.423v28.21h7.964V22.112H86.313V14.778H74.378V7.617H88.743V.2H72.924c-4.34,0-6.51,2.083-6.51,6.228m110.3,28.231H191.47a9.292,9.292,0,0,0,2-.2,10.133,10.133,0,0,0,4.188-1.714,8.764,8.764,0,0,0,3.19-4.08,10.57,10.57,0,0,0,.738-5.4c-.109-4.014-1.888-6.662-5.36-7.986L185,12.694c-1.042-.369-1.584-1.3-1.584-2.8s.868-2.235,2.387-2.235h13.237V.174H185.481a20.089,20.089,0,0,0-2,.282,11.13,11.13,0,0,0-4.622,1.714,10.415,10.415,0,0,0-3.081,3.646,9.947,9.947,0,0,0-1.063,4.6,10.133,10.133,0,0,0,1.193,4.8,9.632,9.632,0,0,0,3.255,3.6,10.876,10.876,0,0,0,3.472,1.476l8.745,1.758c1.042.282,1.584,1.215,1.584,2.778a2.078,2.078,0,0,1-2.365,2.344h-13.91v7.486Zm-20.289,0h15.819V27.211H157.879v-6.1h11.935V13.779H157.879V7.595h14.365V.2H156.425c-4.34,0-6.51,2.083-6.51,6.228V27.645c0,4.687,2.17,7.009,6.51,7.009Zm-35.826,0h7.725V7.335h10.394c.781,0,1.15.3,1.15.911A2.7,2.7,0,0,1,139.152,10L133.488,16.8q-2.051,2.474,0,6.64l5.36,10.459c-1.389-4.926.325-9.83,1.454-12.5a15.232,15.232,0,0,1,1.215-2.192c1.389-2.127,3.6-4.1,4.687-6.119a9.275,9.275,0,0,0,1.085-4.3,8.253,8.253,0,0,0-2.387-6.38A8.558,8.558,0,0,0,138.761.174H120.577V34.654ZM14.2,14.778h-.022A53.348,53.348,0,0,0,2.877,25.5Q2.031,26.6,1.25,27.776L10.885,2.127A4,4,0,0,1,12.208.564,3.673,3.673,0,0,1,14.183,0a3.86,3.86,0,0,1,2,.564,3.236,3.236,0,0,1,1.345,1.562L29.872,34.654h-7.92L14.2,14.778ZM39.572.2V27.211H53.937v7.443H38.118q-6.51,0-6.51-7.009V.2h7.964Zm69.374,34.459h7.92L104.5,2.127A3.722,3.722,0,0,0,103.152.564a3.666,3.666,0,0,0-2-.564,3.529,3.529,0,0,0-3.3,2.127L85.684,34.633h7.9L101.2,14.756l7.747,19.92Z" transform="translate(-1.25 0)" fill="none"/>
    </clipPath>
    <clipPath id="clip-path-3">
      <path id="Path_211" data-name="Path 211" d="M65.515,23.294h8.919L66.991,9.97s-.065-.174-.087-.26c-1.193,2.474-3.385,8.159-1.389,13.562" transform="translate(-64.708 -9.71)" fill="none"/>
    </clipPath>
    <linearGradient id="linear-gradient-2" x1="-8.154" y1="14.854" x2="-8.122" y2="14.854" xlink:href="#linear-gradient"/>
  </defs>
  <g id="Group_215" data-name="Group 215">
    <path id="Path_208" data-name="Path 208" d="M40.841,24.3V23.193c0-1.432.608-2.148,1.8-2.148h.239c1.193,0,1.8.716,1.8,2.148V24.3c0,1.41-.629,2.1-1.866,2.1h-.109c-1.237,0-1.866-.694-1.866-2.1Zm1.193,4.058h1.454c2.213,0,3.32-1.541,3.32-4.644S45.7,19.07,43.489,19.07H42.035c-2.213,0-3.32,1.541-3.32,4.644S39.821,28.357,42.035,28.357Zm11.8-.043h.043a4.881,4.881,0,0,0,1.844-.3,3,3,0,0,0,1.15-.781,2.684,2.684,0,0,0,.586-1.193,12.635,12.635,0,0,0,.152-2.43V19.092H55.64v4.557a8.481,8.481,0,0,1-.087,1.562,1.249,1.249,0,0,1-.521.759,2.073,2.073,0,0,1-1.259.325h-1v1.953h1.063Zm9.917,0h2.1V19.092h-2.1Zm8.745-.043h3.971a1.946,1.946,0,0,0,.521-.043,2.88,2.88,0,0,0,1.128-.456,2.4,2.4,0,0,0,.868-1.085,2.689,2.689,0,0,0,.2-1.432,2.111,2.111,0,0,0-1.432-2.127l-3.016-.694A.684.684,0,0,1,74.3,21.7c0-.391.217-.608.651-.608h3.559v-2H74.866a4.623,4.623,0,0,0-.543.065,2.951,2.951,0,0,0-1.237.456,2.759,2.759,0,0,0-.825.976A2.694,2.694,0,0,0,71.98,21.8a2.7,2.7,0,0,0,1.194,2.235,2.813,2.813,0,0,0,.933.391l2.344.456c.282.087.434.325.434.738a.562.562,0,0,1-.629.629H72.523v2Zm14.278,0h2.148v-7.2h2.04v-2H84.631v2H86.78v7.2Zm10.307.022h2.1V19.07h-2.1Zm8.224-.043h2.17V19.07h-2.17Zm5.36-9.179-2.365,3.949a1.323,1.323,0,0,0-.152.608,1.23,1.23,0,0,0,.13.586l2.322,4.036h2.561l-2.778-4.6,2.864-4.579ZM28.624,28.249h4.3V26.274H29.058v-7.2H26.91v7.356c0,1.193.586,1.8,1.693,1.8Z" transform="translate(31.484 22.311)" fill="#ed1c24" fill-rule="evenodd"/>
    <g id="Group_212" data-name="Group 212" transform="translate(0 15.711)" clip-path="url(#clip-path)">
      <rect id="Rectangle_65" data-name="Rectangle 65" width="24.325" height="24.26" transform="matrix(0.696, -0.718, 0.718, 0.696, -9.465, 9.754)" fill="url(#linear-gradient)"/>
    </g>
    <g id="Group_213" data-name="Group 213" transform="translate(2.712)" clip-path="url(#clip-path-2)">
      <rect id="Rectangle_66" data-name="Rectangle 66" width="200.549" height="34.654" transform="translate(0)" fill="#0d3548"/>
    </g>
    <g id="Group_214" data-name="Group 214" transform="translate(140.415 21.07)" clip-path="url(#clip-path-3)">
      <rect id="Rectangle_67" data-name="Rectangle 67" width="17.208" height="17.36" transform="matrix(0.734, -0.679, 0.679, 0.734, -7.976, 6.251)" fill="url(#linear-gradient-2)"/>
    </g>
  </g>
</svg>
