<svg xmlns="http://www.w3.org/2000/svg" width="78.503" height="78.513" viewBox="0 0 78.503 78.513">
  <defs>
    <style>
      .cls-1 {
        fill: none;
        stroke: #ed1c24;
        stroke-linecap: round;
        stroke-linejoin: round;
        stroke-miterlimit: 10;
        stroke-width: 2px;
      }
    </style>
  </defs>
  <g id="middle-east" transform="translate(1 1)">
    <path id="Path_59017" data-name="Path 59017" class="cls-1" d="M34.474,79.064a2.172,2.172,0,0,1-.542-.306L31.925,77.2a2.148,2.148,0,0,0-1.316-.451H26.976a2.148,2.148,0,0,0-.988.24l-3.82,1.978a2.157,2.157,0,0,1-.987.24H18.387a2.15,2.15,0,0,1-1.645-.768l-.773-.922a2.15,2.15,0,0,0-1.645-.768H11.665A2.148,2.148,0,0,0,9.516,78.9v6.089a2.144,2.144,0,0,0,.362,1.191l3.174,4.764a2.151,2.151,0,0,0,2.4.868l2.972-.877a2.142,2.142,0,0,1,1.011-.051l5.645,1.077a2.14,2.14,0,0,0,1.1-.078l2.246-.771a2.148,2.148,0,0,1,2.792,2.507l-1.552,6.851a2.15,2.15,0,0,1-2.095,1.673H23.051a2.195,2.195,0,0,0-.389.035l-5.694,1.051a2.158,2.158,0,0,1-.7.014l-6.3-.93A2.148,2.148,0,0,0,7.5,104.439v19.546a2.148,2.148,0,0,0,2.149,2.147H24.813a2.147,2.147,0,0,0,1.555-.665l2.386-2.5a2.15,2.15,0,0,0,.468-2.206l-2.6-7.272a2.149,2.149,0,0,1,3.824-1.9l6.574,10.095" transform="translate(-7.501 -66.09)"/>
    <path id="Path_59018" data-name="Path 59018" class="cls-1" d="M260.151,178.76a2.146,2.146,0,0,1-.074,1.886l-1.832,3.4a2.153,2.153,0,0,0-.151,1.689l1.335,4.067a2.153,2.153,0,0,1,.106.67v3.062a2.143,2.143,0,0,0,.659,1.547l1.536,1.481a2.146,2.146,0,0,1-.08,3.168l-1.034.9a2.138,2.138,0,0,0-.671,1.085L259.612,203a2.147,2.147,0,0,1-3.012,1.4l-4.361-2.1a2.149,2.149,0,0,1-1.071-1.158l-.751-1.936a2.15,2.15,0,0,0-1.975-1.371l-5.21-.066a2.137,2.137,0,0,1-1.43-.571l-4.211-3.891a2.147,2.147,0,0,0-2.977.059l-.417.417a2.149,2.149,0,0,0-.263,2.717l5.568,8.284a2.149,2.149,0,0,0,1.4.916l2.34.422a2.149,2.149,0,0,0,1.758-.466l.636-.533a2.15,2.15,0,0,1,2.755,0l4.584,3.827a2.148,2.148,0,0,1,.454,2.774l-4.319,7.025a2.156,2.156,0,0,1-1.025.868l-22.635,9.131a2.15,2.15,0,0,1-2.815-1.239l-1.823-4.87a2.143,2.143,0,0,1,0-1.513l.767-2.03a2.148,2.148,0,0,0-.208-1.932l-3.032-4.655" transform="translate(-185.887 -152.398)"/>
    <path id="Path_59019" data-name="Path 59019" class="cls-1" d="M370.951,143.935h.289a2.138,2.138,0,0,0,1.07-.286l4.99-2.869a2.153,2.153,0,0,1,1.5-.243l5.474,1.11a2.142,2.142,0,0,1,1.1.6l.214.216" transform="translate(-315.006 -120.023)"/>
    <path id="Path_59020" data-name="Path 59020" class="cls-1" d="M188.585,9.9A15.55,15.55,0,0,1,212.439,23.05c0,10.761-9.576,18.995-13.7,22.042a3.113,3.113,0,0,1-3.7,0c-4.122-3.048-13.7-11.281-13.7-22.042a15.476,15.476,0,0,1,3.269-9.54" transform="translate(-154.582 -7.5)"/>
    <ellipse id="Ellipse_125" data-name="Ellipse 125" class="cls-1" cx="10.573" cy="10.573" rx="10.573" ry="10.573" transform="translate(31.734 4.976)"/>
    <path id="Path_59021" data-name="Path 59021" class="cls-1" d="M253.857,79.189a3.708,3.708,0,0,1-1.7-7.005,5.595,5.595,0,1,0,4.995,4.995A3.713,3.713,0,0,1,253.857,79.189Z" transform="translate(-209.277 -62.202)"/>
  </g>
</svg>
