<svg xmlns="http://www.w3.org/2000/svg" width="330" height="316.292" viewBox="0 0 330 316.292">
  <defs>
    <style>
      .cls-1 {
        fill: none;
        stroke: #cecece;
      }
    </style>
  </defs>
  <g id="contact-form" transform="translate(-1.5 -2.5)">
    <path id="Path_59018" data-name="Path 59018" class="cls-1" d="M15.854,32.708H125.521a6.854,6.854,0,0,0,0-13.708H15.854a6.854,6.854,0,1,0,0,13.708Z" transform="translate(40.979 93.667)"/>
    <path id="Path_59019" data-name="Path 59019" class="cls-1" d="M15.854,39.708H70.688a6.854,6.854,0,0,0,0-13.708H15.854a6.854,6.854,0,1,0,0,13.708Z" transform="translate(40.979 134.646)"/>
    <path id="Path_59020" data-name="Path 59020" class="cls-1" d="M103.068,114.414l26.807-13.393a6.861,6.861,0,0,0,.713-11.858L41.059,30.128A6.853,6.853,0,0,0,30.441,35.44L24.012,142.406a6.859,6.859,0,0,0,9.9,6.546L60.73,135.559,74.109,162.29a6.857,6.857,0,0,0,6.141,3.79,6.694,6.694,0,0,0,2.783-.6l30.727-13.708a6.852,6.852,0,0,0,3.338-9.322ZM83.438,150.3,69.928,123.3a6.865,6.865,0,0,0-9.2-3.071L38.406,131.385l5-83.285,69.7,45.971L90.8,105.216a6.811,6.811,0,0,0-3.434,3.962,6.879,6.879,0,0,0,.37,5.237l13.893,27.766Z" transform="translate(128.793 152.211)"/>
    <path id="Path_59021" data-name="Path 59021" class="cls-1" d="M303.584,3H29.417A27.444,27.444,0,0,0,2,30.417V98.958a6.854,6.854,0,0,0,13.708,0V78.4H235.042a6.854,6.854,0,0,0,0-13.708H15.708V30.417A13.722,13.722,0,0,1,29.417,16.708H303.584a13.722,13.722,0,0,1,13.708,13.708V64.688H269.313a6.854,6.854,0,1,0,0,13.708h47.979V263.459a13.722,13.722,0,0,1-13.708,13.708H262.459a6.854,6.854,0,1,0,0,13.708h41.125A27.444,27.444,0,0,0,331,263.459V30.417A27.444,27.444,0,0,0,303.584,3Z" transform="translate(0 0)"/>
    <path id="Path_59022" data-name="Path 59022" class="cls-1" d="M132.229,171.792H29.417a13.722,13.722,0,0,1-13.708-13.708V27.854A6.854,6.854,0,0,0,2,27.854V158.083A27.444,27.444,0,0,0,29.417,185.5H132.229a6.854,6.854,0,1,0,0-13.708Z" transform="translate(0 105.375)"/>
  </g>
</svg>
