<svg xmlns="http://www.w3.org/2000/svg" width="74.294" height="71.199" viewBox="0 0 74.294 71.199">
  <defs>
    <style>
      .cls-1 {
        fill: #fff;
      }
    </style>
  </defs>
  <g id="contact-form" transform="translate(-2 -3)">
    <path id="Path_59018" data-name="Path 59018" class="cls-1" d="M10.548,22.1H35.313a1.548,1.548,0,1,0,0-3.1H10.548a1.548,1.548,0,0,0,0,3.1Z" transform="translate(3.835 8.765)"/>
    <path id="Path_59019" data-name="Path 59019" class="cls-1" d="M10.548,29.1H22.93a1.548,1.548,0,0,0,0-3.1H10.548a1.548,1.548,0,1,0,0,3.1Z" transform="translate(3.835 12.599)"/>
    <path id="Path_59020" data-name="Path 59020" class="cls-1" d="M41.855,48.288l6.053-3.024a1.549,1.549,0,0,0,.161-2.678L27.852,29.255a1.547,1.547,0,0,0-2.4,1.2L24,54.61a1.549,1.549,0,0,0,2.237,1.478l6.055-3.024L35.316,59.1a1.548,1.548,0,0,0,1.387.856,1.512,1.512,0,0,0,.628-.135l6.939-3.1a1.547,1.547,0,0,0,.754-2.105Zm-4.433,8.1-3.051-6.1a1.55,1.55,0,0,0-2.077-.693l-5.041,2.518,1.13-18.807,15.74,10.381-5.038,2.517a1.538,1.538,0,0,0-.775.895,1.553,1.553,0,0,0,.084,1.183l3.137,6.27Z" transform="translate(12.052 14.243)"/>
    <path id="Path_59021" data-name="Path 59021" class="cls-1" d="M70.1,3H8.191A6.2,6.2,0,0,0,2,9.191V24.669a1.548,1.548,0,0,0,3.1,0V20.026h49.53a1.548,1.548,0,0,0,0-3.1H5.1V9.191a3.1,3.1,0,0,1,3.1-3.1H70.1a3.1,3.1,0,0,1,3.1,3.1V16.93H62.364a1.548,1.548,0,1,0,0,3.1H73.2V61.816a3.1,3.1,0,0,1-3.1,3.1H60.816a1.548,1.548,0,0,0,0,3.1H70.1a6.2,6.2,0,0,0,6.191-6.191V9.191A6.2,6.2,0,0,0,70.1,3Z" transform="translate(0 0)"/>
    <path id="Path_59022" data-name="Path 59022" class="cls-1" d="M31.408,55.052H8.191a3.1,3.1,0,0,1-3.1-3.1V22.548a1.548,1.548,0,0,0-3.1,0V51.956a6.2,6.2,0,0,0,6.191,6.191H31.408a1.548,1.548,0,1,0,0-3.1Z" transform="translate(0 9.86)"/>
  </g>
</svg>
