<svg xmlns="http://www.w3.org/2000/svg" width="48" height="48" viewBox="0 0 48 48" fill="none"><path d="M17.7455 14.1091V8.29091C17.7455 7.85455 17.4546 7.56364 17.0182 7.56364C16.5819 7.56364 16.2909 7.85455 16.2909 8.29091V14.1091C14.9819 14.4 14.0364 15.6364 14.0364 17.0182C14.0364 17.8909 14.4 18.6182 14.9091 19.2L12.2909 23.6364C12.0728 24 12.2182 24.4364 12.5819 24.6545C12.9455 24.8727 13.3819 24.7273 13.6 24.3636L16.2182 19.9273C16.5091 20 16.8 20.0727 17.0909 20.0727C18.7637 20.0727 20.0728 18.6909 20.0728 17.0909C20 15.5636 18.9819 14.4 17.7455 14.1091ZM17.0182 18.5455C16.1455 18.5455 15.4909 17.8182 15.4909 17.0182C15.4909 16.1455 16.2182 15.4909 17.0182 15.4909C17.8909 15.4909 18.5455 16.2182 18.5455 17.0182C18.5455 17.8182 17.8182 18.5455 17.0182 18.5455ZM17.0182 5.67273C17.4546 5.67273 17.7455 5.38182 17.7455 4.94545V3.49091C17.7455 3.05455 17.4546 2.76364 17.0182 2.76364C16.5819 2.76364 16.2909 3.05455 16.2909 3.49091V4.94545C16.2909 5.30909 16.5819 5.67273 17.0182 5.67273ZM17.0182 28.2909C16.5819 28.2909 16.2909 28.5818 16.2909 29.0182V30.4727C16.2909 30.9091 16.5819 31.2 17.0182 31.2C17.4546 31.2 17.7455 30.9091 17.7455 30.4727V29.0182C17.7455 28.6545 17.3819 28.2909 17.0182 28.2909ZM5.67276 17.0182C5.67276 16.5818 5.38185 16.2909 4.94549 16.2909H3.49094C3.05458 16.2909 2.76367 16.5818 2.76367 17.0182C2.76367 17.4545 3.05458 17.7455 3.49094 17.7455H4.94549C5.30913 17.7455 5.67276 17.3818 5.67276 17.0182ZM28.2909 17.0182C28.2909 17.4545 28.5819 17.7455 29.0182 17.7455H30.4728C30.9091 17.7455 31.2 17.4545 31.2 17.0182C31.2 16.5818 30.9091 16.2909 30.4728 16.2909H29.0182C28.6546 16.2909 28.2909 16.5818 28.2909 17.0182ZM4.87276 10.8364L6.18185 11.5636C6.54549 11.7818 6.98185 11.6364 7.20004 11.2727C7.41822 10.9091 7.27276 10.4727 6.90913 10.2545L5.60004 9.52727C5.2364 9.30909 4.80004 9.45455 4.58185 9.81818C4.4364 10.2545 4.50913 10.6909 4.87276 10.8364ZM11.3455 26.7636C10.9819 26.5455 10.5455 26.6909 10.3273 27.0545L9.60004 28.3636C9.38185 28.7273 9.52731 29.1636 9.89094 29.3818C10.2546 29.6 10.6909 29.4545 10.9091 29.0909L11.6364 27.7818C11.7819 27.4182 11.7091 26.9818 11.3455 26.7636ZM22.6182 7.2C22.9819 7.41818 23.4182 7.27273 23.6364 6.90909L24.3637 5.6C24.5819 5.23636 24.4364 4.8 24.0728 4.58182C23.7091 4.36364 23.2728 4.50909 23.0546 4.87273L22.3273 6.18182C22.1819 6.54545 22.2546 6.98182 22.6182 7.2ZM11.2 7.27273C11.5637 7.05455 11.6364 6.61818 11.4182 6.25455L10.6909 4.94545C10.4728 4.58182 10.0364 4.50909 9.67276 4.72727C9.30913 4.94545 9.2364 5.38182 9.45458 5.74545L10.1819 7.05455C10.4 7.34545 10.8364 7.49091 11.2 7.27273ZM6.25458 22.5455L4.94549 23.2727C4.58185 23.4909 4.50913 23.9273 4.72731 24.2909C4.94549 24.6545 5.38185 24.7273 5.74549 24.5091L7.05458 23.7818C7.41822 23.5636 7.49094 23.1273 7.27276 22.7636C7.05458 22.4 6.61822 22.3273 6.25458 22.5455ZM27.7091 11.4909L29.0182 10.7636C29.3819 10.5455 29.4546 10.1091 29.2364 9.74545C29.0182 9.38182 28.5819 9.30909 28.2182 9.52727L26.9091 10.2545C26.5455 10.4727 26.4728 10.9091 26.6909 11.2727C26.9091 11.5636 27.3455 11.6364 27.7091 11.4909ZM29.7455 1.45455H42.3273V18.9091L39.3455 15.9273C39.0546 15.6364 38.6182 15.6364 38.3273 15.9273C38.0364 16.2182 38.0364 16.6545 38.3273 16.9455L42.5455 21.1636C42.6909 21.3091 42.8364 21.3818 43.0546 21.3818C43.2728 21.3818 43.4182 21.3091 43.5637 21.1636L47.7819 16.9455C48.0728 16.6545 48.0728 16.2182 47.7819 15.9273C47.4909 15.6364 47.0546 15.6364 46.7637 15.9273L43.7819 18.9091V0.727273C43.7819 0.290909 43.4909 0 43.0546 0H29.7455C29.3091 0 29.0182 0.290909 29.0182 0.727273C29.0182 1.16364 29.3819 1.45455 29.7455 1.45455Z" fill="#121315"></path><path d="M47.4909 26.4727C47.3455 26.4 33.9636 19.0545 33.8182 19.0545C33.8909 18.3273 33.9636 17.6727 33.9636 17.0182C33.9636 7.63636 26.3273 0 16.9455 0C7.63636 0 0 7.63636 0 17.0182C0 26.4 7.63636 34.0364 16.9455 34.0364C17.6727 34.0364 18.5455 33.9636 19.4182 33.8182V38.7636C19.4182 38.9818 19.5636 39.2727 19.7818 39.3455L33.2364 47.8545C33.3818 47.9273 33.4545 48 33.6 48C33.7455 48 33.8909 47.9273 33.9636 47.9273L47.5636 40.7273C47.7818 40.5818 47.9273 40.3636 47.9273 40.0727V27.1273C47.9273 26.8364 47.7818 26.6182 47.4909 26.4727ZM45.6727 27.1273L42.4727 28.8727L30.4 22.2545L33.6 20.5818L45.6727 27.1273ZM39.5636 30.8364L27.0545 24L28.8727 22.9818L41.7455 30.0364V33.6727L40 34.7636V31.4909C40 31.2 39.7818 30.9091 39.5636 30.8364ZM33.6727 33.6727L21.6727 26.9091L25.5273 24.8727L37.7455 31.4909L33.6727 33.6727ZM16.9455 32.5091C8.43636 32.5091 1.45455 25.5273 1.45455 17.0182C1.45455 8.43636 8.43636 1.45455 16.9455 1.45455C25.5273 1.45455 32.5091 8.43636 32.5091 17.0182C32.5091 17.7455 32.4364 18.7636 32.2909 19.6364C32.2909 19.6364 19.9273 26.2545 19.7818 26.2545C19.5636 26.4 19.4182 26.6909 19.4182 26.9091V32.3636C18.5455 32.4364 17.6727 32.5091 16.9455 32.5091ZM20.8727 38.3273V28.1455L32.8727 34.9091V45.9636L20.8727 38.3273ZM34.3273 46.0364V34.9818L38.4727 32.7273V36C38.4727 36.2909 38.6182 36.5091 38.8364 36.6545C39.0545 36.8 39.3455 36.8 39.5636 36.6545L42.8364 34.8364C43.0545 34.6909 43.2 34.4727 43.2 34.1818V30.1091L46.4 28.3636V39.6364L34.3273 46.0364Z" fill="#121315"></path><path d="M31.273 37.1636L23.3458 32.5818C22.9821 32.3636 22.5458 32.5091 22.3276 32.8727C22.1094 33.2364 22.2549 33.6727 22.6185 33.8909L30.5458 38.4C30.9094 38.6182 31.3458 38.4727 31.5639 38.1091C31.7094 37.8182 31.5639 37.3091 31.273 37.1636ZM31.2003 40.1455L23.273 35.4909C22.9094 35.2727 22.473 35.4182 22.2549 35.7818C22.0367 36.1455 22.1821 36.5818 22.5458 36.8L30.473 41.3818C30.8367 41.6 31.273 41.4545 31.4912 41.0909C31.6367 40.7273 31.4912 40.2909 31.2003 40.1455Z" fill="#121315"></path></svg>