<svg xmlns="http://www.w3.org/2000/svg" width="48" height="48" viewBox="0 0 48 48" fill="none"><path d="M47.3516 36.7777H37.8719V25.8383C37.8733 25.6977 37.8339 25.5597 37.7583 25.441C37.6828 25.3224 37.5744 25.2283 37.4464 25.1701L26.807 20.4356C28.0288 18.6739 29.1306 16.832 30.1051 14.9223H41.5403C44.352 14.9797 46.5847 17.3057 46.5273 20.1173C46.4714 22.8481 44.2711 25.0484 41.5403 25.1042C39.587 24.7702 39.587 26.9108 41.5403 26.5725C45.1629 26.5073 48.0466 23.5177 47.9814 19.8951C47.9178 16.3645 45.071 13.5177 41.5403 13.4541H30.7733C38.4698 -4.42006 9.6457 -4.39886 17.34 13.4541H2.49599L4.17272 11.7879C4.84298 11.1368 3.81737 10.1069 3.14495 10.7496L0.225578 13.6753C0.0893602 13.8138 0.0130212 14.0003 0.0130212 14.1945C0.0130212 14.3887 0.0893602 14.5752 0.225578 14.7137L3.14504 17.6225C3.79832 18.3076 4.84739 17.233 4.17281 16.5883L2.49599 14.9223H18.0061C18.9678 16.8289 20.0658 18.6636 21.2915 20.4122L10.6032 25.1894C10.4706 25.313 10.3672 25.4646 10.3006 25.6332C10.2339 25.8017 10.2057 25.9831 10.218 26.1639C10.169 28.3408 10.2435 36.5671 10.218 36.7778H6.56024C3.73977 36.7778 1.45331 34.4913 1.45331 31.6709C1.45331 28.8504 3.73977 26.5639 6.56024 26.5639C8.51152 26.9087 8.51997 24.7617 6.56024 25.0957C2.93711 25.0957 0 28.0328 0 31.6559C0 35.2791 2.93711 38.2162 6.56024 38.2162H10.2138C10.2138 38.6205 10.2138 40.2696 10.2244 41.2782C10.2393 41.6102 10.3499 41.957 10.6499 42.0421C10.6499 42.0421 23.7512 47.8789 23.7831 47.9022C23.9675 47.9646 24.1684 47.9562 24.347 47.8789L37.4462 42.0421C37.8441 41.8548 37.8952 41.4825 37.8952 41.0761C37.8824 40.0653 37.8505 38.6588 37.8782 38.2162H47.3579C47.535 38.196 47.6984 38.1111 47.8168 37.9779C47.9352 37.8446 48.0002 37.6724 47.9994 37.4941C47.9987 37.3159 47.9321 37.1442 47.8126 37.012C47.693 36.8798 47.5289 36.7964 47.3516 36.7777ZM24.0578 30.8963L18.9147 28.6045L30.2286 23.5466L35.3611 25.8383L24.0578 30.8963ZM17.4124 7.98333C18.2572 -4.22855 41.4765 0.503892 24.0577 21.7316C22.3405 19.5057 17.4124 12.6114 17.4124 7.98333ZM23.4747 23.3742C24.628 24.2062 24.7365 22.9997 25.941 21.6464L28.437 22.7486L17.1295 27.8066C16.0443 27.3151 13.8014 26.3171 12.7205 25.8383L22.147 21.6464C22.881 22.6401 23.4002 23.2891 23.4747 23.3742ZM11.6714 40.9121V26.9618C14.544 28.2385 20.4745 30.8963 23.313 32.173V46.1148L11.6714 40.9121ZM36.425 40.9121L24.7727 46.1212V32.173L36.425 26.9618V40.9121ZM28.1667 8.04714C28.1667 5.76959 26.3204 3.92331 24.0429 3.92331C21.7653 3.92331 19.9191 5.76959 19.9191 8.04714C19.9191 10.3247 21.7653 12.171 24.0429 12.171C26.3204 12.171 28.1667 10.3247 28.1667 8.04714ZM24.0578 10.7283C22.5835 10.6866 21.4221 9.45775 21.4638 7.98352C21.5037 6.56775 22.642 5.42944 24.0578 5.38947C25.5321 5.43113 26.6935 6.65999 26.6518 8.13422C26.6119 9.54999 25.4735 10.6883 24.0578 10.7283Z" fill="#121315"></path></svg>