<svg id="cargo-ship_1_" data-name="cargo-ship (1)" xmlns="http://www.w3.org/2000/svg" width="138" height="82.803" viewBox="0 0 138 82.803">
  <defs>
    <style>
      .cls-1 {
        fill: #fff;
      }
    </style>
  </defs>
  <path id="Path_38838" data-name="Path 38838" class="cls-1" d="M135.7,260.59a12.809,12.809,0,0,1-7.233-2.015,18.571,18.571,0,0,0-18.9,0,13.978,13.978,0,0,1-14.456,0,18.564,18.564,0,0,0-18.9,0,13.967,13.967,0,0,1-14.45,0,17.237,17.237,0,0,0-9.45-2.585,17.237,17.237,0,0,0-9.445,2.585,12.757,12.757,0,0,1-7.223,2.015,12.777,12.777,0,0,1-7.222-2.012,17.224,17.224,0,0,0-9.446-2.587,17.231,17.231,0,0,0-9.444,2.585A12.758,12.758,0,0,1,2.3,260.59a2.3,2.3,0,0,0,0,4.6,17.2,17.2,0,0,0,9.446-2.587,12.8,12.8,0,0,1,7.222-2.012,12.773,12.773,0,0,1,7.225,2.016,17.221,17.221,0,0,0,9.444,2.584A17.224,17.224,0,0,0,45.08,262.6,12.773,12.773,0,0,1,52.3,260.59a12.791,12.791,0,0,1,7.226,2.016,18.565,18.565,0,0,0,18.9,0,13.967,13.967,0,0,1,14.452,0,18.565,18.565,0,0,0,18.9,0,13.993,13.993,0,0,1,14.467,0,17.243,17.243,0,0,0,9.45,2.584,2.3,2.3,0,1,0,0-4.6Zm0,0" transform="translate(0 -182.391)"/>
  <path id="Path_38839" data-name="Path 38839" class="cls-1" d="M0,71.3a2.3,2.3,0,0,0,2.3,2.3,17.1,17.1,0,0,0,9.43-2.584A12.875,12.875,0,0,1,18.975,69a12.874,12.874,0,0,1,7.254,2.036,17.189,17.189,0,0,0,9.4,2.564,17.306,17.306,0,0,0,9.466-2.59A12.655,12.655,0,0,1,52.3,69a12.9,12.9,0,0,1,7.276,2.036,18.551,18.551,0,0,0,18.86-.026A12.652,12.652,0,0,1,85.652,69a12.9,12.9,0,0,1,7.276,2.036,18.548,18.548,0,0,0,18.86-.02A12.884,12.884,0,0,1,119.024,69c.5,0,.959.019,1.424.063a12.769,12.769,0,0,1,5.794,1.955A17.259,17.259,0,0,0,135.7,73.6a2.3,2.3,0,1,0,0-4.6,12.785,12.785,0,0,1-7.236-2.012,20.181,20.181,0,0,0-4.393-1.929l13.685-27.225A2.3,2.3,0,0,0,135.7,34.5H124.2V2.3A2.3,2.3,0,0,0,121.9,0H39.1a2.3,2.3,0,0,0-2.3,2.3V41.4H32.2V6.9a2.3,2.3,0,0,0-2.3-2.3H11.5A2.3,2.3,0,0,0,9.228,6.551L4.927,34.5H2.3A2.3,2.3,0,0,0,0,36.8V57.5a2.292,2.292,0,0,0,.329,1.185l5.881,9.8A13.3,13.3,0,0,1,2.3,69,2.3,2.3,0,0,0,0,71.3ZM108.1,34.5a2.3,2.3,0,0,0-1.38.46L98.133,41.4H96.6V32.2h23v2.3ZM69,41.4V32.2H92v9.2Zm-27.6-23h23v9.2h-23Zm78.2,9.2h-23V18.4h23ZM92,27.6H69V18.4H92Zm27.6-13.8h-23V4.6h23ZM92,13.8H69V4.6H92ZM41.4,4.6h23v9.2h-23Zm0,27.6h23v9.2h-23ZM13.473,9.2H27.6V38.148l-2.974-2.974A2.3,2.3,0,0,0,23,34.5H9.582ZM4.6,39.1H22.047l6.226,6.226A2.3,2.3,0,0,0,29.9,46h69a2.3,2.3,0,0,0,1.38-.459l8.586-6.441h23.1L119.248,64.4h-.23a17.3,17.3,0,0,0-9.455,2.585,13.977,13.977,0,0,1-14.491-.02,18.546,18.546,0,0,0-18.859.02,13.977,13.977,0,0,1-14.491-.02A17.235,17.235,0,0,0,52.3,64.4a17.083,17.083,0,0,0-9.43,2.585A12.888,12.888,0,0,1,35.627,69a12.861,12.861,0,0,1-7.253-2.035,17.206,17.206,0,0,0-9.4-2.565c-.562,0-1.084.024-1.585.058-.168.011-.322.031-.485.048-.32.031-.637.064-.937.108-.176.028-.343.057-.512.09-.263.046-.518.094-.764.152-.164.037-.325.079-.481.119-.23.061-.46.127-.691.2-.14.043-.283.086-.419.133-.229.079-.444.162-.655.246-.111.044-.23.085-.334.131-.256.108-.5.219-.741.334l-.156.072c-.287.14-.568.283-.837.426L4.6,56.863Zm0,0" transform="translate(0 0)"/>
  <path id="Path_38840" data-name="Path 38840" class="cls-1" d="M60.6,40H58.3a2.3,2.3,0,1,0,0,4.6h2.3a2.3,2.3,0,0,0,0-4.6Zm0,0" transform="translate(-39.9 -28.5)"/>
  <path id="Path_38841" data-name="Path 38841" class="cls-1" d="M66.3,180.6h2.3a2.3,2.3,0,0,0,0-4.6H66.3a2.3,2.3,0,0,0,0,4.6Zm0,0" transform="translate(-45.6 -125.4)"/>
  <path id="Path_38842" data-name="Path 38842" class="cls-1" d="M106.3,180.6h2.3a2.3,2.3,0,0,0,0-4.6h-2.3a2.3,2.3,0,0,0,0,4.6Zm0,0" transform="translate(-74.1 -125.4)"/>
  <path id="Path_38843" data-name="Path 38843" class="cls-1" d="M146.3,180.6h2.3a2.3,2.3,0,0,0,0-4.6h-2.3a2.3,2.3,0,0,0,0,4.6Zm0,0" transform="translate(-102.6 -125.4)"/>
  <path id="Path_38844" data-name="Path 38844" class="cls-1" d="M186.3,180.6h2.3a2.3,2.3,0,0,0,0-4.6h-2.3a2.3,2.3,0,0,0,0,4.6Zm0,0" transform="translate(-131.1 -125.4)"/>
  <path id="Path_38845" data-name="Path 38845" class="cls-1" d="M226.3,180.6h2.3a2.3,2.3,0,0,0,0-4.6h-2.3a2.3,2.3,0,1,0,0,4.6Zm0,0" transform="translate(-159.6 -125.4)"/>
  <path id="Path_38846" data-name="Path 38846" class="cls-1" d="M266.3,180.6h2.3a2.3,2.3,0,1,0,0-4.6h-2.3a2.3,2.3,0,0,0,0,4.6Zm0,0" transform="translate(-188.101 -125.4)"/>
  <path id="Path_38847" data-name="Path 38847" class="cls-1" d="M306.3,180.6h2.3a2.3,2.3,0,0,0,0-4.6h-2.3a2.3,2.3,0,0,0,0,4.6Zm0,0" transform="translate(-216.601 -125.4)"/>
  <path id="Path_38848" data-name="Path 38848" class="cls-1" d="M346.3,180.6h2.3a2.3,2.3,0,0,0,0-4.6h-2.3a2.3,2.3,0,0,0,0,4.6Zm0,0" transform="translate(-245.101 -125.4)"/>
  <path id="Path_38849" data-name="Path 38849" class="cls-1" d="M386.3,180.6h2.3a2.3,2.3,0,0,0,0-4.6h-2.3a2.3,2.3,0,0,0,0,4.6Zm0,0" transform="translate(-273.601 -125.4)"/>
</svg>
