<svg xmlns="http://www.w3.org/2000/svg" width="101.224" height="101.225" viewBox="0 0 101.224 101.225">
  <path id="container" d="M102.3,68.853,44.2,61.51a1.42,1.42,0,0,0-1.6,1.409v38.442a1.42,1.42,0,0,0,1.42,1.42,1.463,1.463,0,0,0,.178-.011l58.1-7.343a1.42,1.42,0,0,0,1.242-1.409V70.262A1.42,1.42,0,0,0,102.3,68.853ZM60.049,66.376l4.6.581V97.322l-4.6.581Zm-2.84,31.886-4.6.581V65.436l4.6.581ZM67.485,67.316l4.6.581V96.383l-4.6.581Zm7.435.94,4.6.581V95.443l-4.6.581Zm7.436.94,4.6.581V94.5l-4.6.581Zm7.435.94,4.6.581V93.564l-4.6.581ZM45.439,64.529l4.334.548V99.2l-4.334.548ZM100.7,92.765l-3.476.439V71.075l3.476.439Zm-82.2-18.519V90.033a1.42,1.42,0,1,1-2.84,0V74.246a1.42,1.42,0,0,1,2.84,0Zm7.918,16.918V73.107a1.42,1.42,0,1,1,2.84,0V91.164a1.42,1.42,0,1,1-2.84,0Zm82.056-27.158L64.191,39.974a6.724,6.724,0,0,0,1.676-4.446,1.42,1.42,0,1,0-2.84,0,3.908,3.908,0,0,1-1.442,3.031l-1.795-.974a1.42,1.42,0,0,0-1.294-.031l-1.936.934a3.91,3.91,0,0,1,2.553-6.875,1.42,1.42,0,0,0,1.42-1.42V24.889a6.5,6.5,0,0,0,0-12.68V10.42a1.42,1.42,0,0,0-2.84,0v1.789a6.5,6.5,0,0,0,0,12.679v4.036a6.75,6.75,0,0,0-3.819,10.861L9.8,61.049A1.42,1.42,0,0,0,9,62.328v39.624a1.42,1.42,0,0,0,1.129,1.39l27.918,5.853a1.412,1.412,0,0,0,.469.019l69.466-8.779a1.42,1.42,0,0,0,1.242-1.409V65.254a1.419,1.419,0,0,0-.743-1.248ZM55.455,18.549a3.658,3.658,0,1,1,3.658,3.658A3.662,3.662,0,0,1,55.455,18.549Zm-17.76,36.61L21.518,58.55,49.731,44.938Zm-.776,3.065v47.832L23.771,103.3V60.98ZM57.481,42.083a6.723,6.723,0,0,0,3.159.024l20.5,18.345L41.716,55.47Zm28.617,19L69.106,45.873,100.483,62.9Zm-74.257,2.4,9.09-1.906V102.7L11.84,100.8Zm27.918,42.712V58.086l66.626,8.42V97.773ZM59.112,19.969a1.42,1.42,0,1,1,1.42-1.42A1.423,1.423,0,0,1,59.112,19.969Z" transform="translate(-8.5 -8.5)" fill="#fff" stroke="#fff" stroke-width="1" fill-rule="evenodd"/>
</svg>
